<?xml version="1.0" encoding="UTF-8" standalone="no"?>
<!-- Created with Inkscape (http://www.inkscape.org/) -->

<svg
   xmlns:dc="http://purl.org/dc/elements/1.1/"
   xmlns:cc="http://creativecommons.org/ns#"
   xmlns:rdf="http://www.w3.org/1999/02/22-rdf-syntax-ns#"
   xmlns:svg="http://www.w3.org/2000/svg"
   xmlns="http://www.w3.org/2000/svg"
   xmlns:sodipodi="http://sodipodi.sourceforge.net/DTD/sodipodi-0.dtd"
   xmlns:inkscape="http://www.inkscape.org/namespaces/inkscape"
   id="svg2"
   sodipodi:docname="dragon.svg"
   viewBox="0 0 60.000002 59.999999"
   version="1.1"
   inkscape:version="0.91 r13725"
   width="60"
   height="60">
  <defs
     id="defs5524" />
  <title
     id="title4165">dragon with flower</title>
  <sodipodi:namedview
     id="base"
     fit-margin-left="0"
     inkscape:zoom="1.4"
     borderopacity="1.0"
     inkscape:current-layer="layer2"
     inkscape:cx="-19.644426"
     inkscape:cy="150.88721"
     inkscape:object-paths="false"
     inkscape:window-maximized="1"
     showgrid="false"
     fit-margin-right="0"
     inkscape:snap-nodes="true"
     inkscape:document-units="px"
     bordercolor="#666666"
     inkscape:window-x="0"
     inkscape:window-y="0"
     inkscape:object-nodes="false"
     fit-margin-bottom="0"
     inkscape:window-width="2048"
     inkscape:pageopacity="0.0"
     inkscape:pageshadow="2"
     pagecolor="#ffffff"
     inkscape:window-height="1093"
     fit-margin-top="0" />
  <g
     id="layer2"
     inkscape:label="Réteg"
     inkscape:groupmode="layer"
     transform="translate(-85.04,-490.35002)">
    <path
       id="path3366"
       style="fill:#000000"
       sodipodi:type="inkscape:offset"
       d="m 291.3457,114.26953 c -3.16457,-0.0386 -5.15983,1.09584 -7.08593,2.08789 -1.92611,0.99206 -3.64484,2.08465 -4.60157,2.63477 -1.36247,0.78342 -2.61612,1.72328 -3.78125,2.75195 -0.0128,-0.032 -0.10917,-0.33418 -0.40429,-0.89258 a 5.2005985,5.2005985 0 0 0 -0.0996,-0.17773 c 0.0104,0.0179 -0.0746,-0.11584 -0.082,-0.13086 -1.6528,-2.89737 -5.14729,-5.14354 -8.75977,-4.79492 -3.62036,0.34937 -6.47647,2.75523 -8.41797,5.88476 -3.30666,5.33007 -6.30173,10.20295 -8.32812,16.98828 -0.61033,0.18722 -1.16323,0.33142 -1.80664,0.55079 -8.32596,2.83859 -15.97715,8.45366 -21.78516,10.39648 -0.30581,0.10229 -2.12659,0.0678 -4.72461,-0.14063 -2.59802,-0.20838 -6.77708,-0.40976 -10.07422,2.76368 -0.71582,0.68896 -1.25004,1.48442 -1.67383,2.29297 -0.24275,0.24117 -0.55682,0.48091 -0.73828,0.70703 -0.74054,0.92279 -1.15984,1.78124 -1.51758,2.64257 -0.71548,1.72267 -1.12218,3.49833 -1.39843,5.32813 -0.27626,1.8298 -0.4005,3.66574 -0.29883,5.45312 0.0141,0.24826 0.056,0.51362 0.0625,0.76172 -6.67886,5.60203 -13.88116,11.81581 -19.56836,16.93164 -3.21746,2.89422 -5.95371,5.41245 -7.88867,7.26563 -0.87678,0.83972 -1.53426,1.4938 -2.10157,2.08984 -0.97508,0.23748 -1.63507,0.35502 -3.57812,0.99024 -2.97594,0.97288 -6.43062,2.09588 -9.4375,4.77929 -7.76398,6.92878 -13.62268,17.13095 -11.66016,28.45508 0.65297,3.76771 2.747,6.52199 4.6211,8.58008 1.87409,2.05809 3.64629,3.64026 4.70898,4.98047 0.92946,1.17219 1.82924,2.55571 2.74219,4.07422 1.17093,1.94679 2.33691,4.09755 3.63086,6.29883 0.29927,0.50924 0.33869,0.56342 0.0644,0.0976 a 5.2005985,5.2005985 0 0 0 0,0.002 c 0.53602,0.90935 1.08064,1.77095 1.62305,2.60351 0.39551,0.6073 0.83141,1.27179 1.34375,1.97461 l -0.002,0 c 0.27392,0.37607 0.58736,0.81179 0.98829,1.3125 0.68838,0.85946 0.75882,0.92955 0.0684,0.0703 a 5.2005985,5.2005985 0 0 0 0.004,0.004 c 0.37041,0.4597 0.69232,0.81484 0.92969,1.08398 0.17537,0.19888 0.3987,0.45657 0.68555,0.75977 a 5.2005985,5.2005985 0 0 0 0.002,0 c 0.32279,0.34096 0.63194,0.64542 0.91992,0.92187 0.56447,0.54324 0.65416,0.59727 0.23242,0.20118 a 5.2005985,5.2005985 0 0 0 0.004,0.002 c 0.14682,0.13768 0.30236,0.28317 0.46875,0.43164 l 0,-0.002 c 0.14726,0.13151 0.48271,0.47472 1.07617,0.94531 a 5.2005985,5.2005985 0 0 0 0.008,0.008 c -0.95595,-0.7547 -0.9475,-0.74145 0.0312,0.0312 a 5.2005985,5.2005985 0 0 0 0.002,0 c 0.46144,0.36415 0.90547,0.68163 1.32422,0.9668 5.55562,3.78347 12.46181,4.11244 18.4414,4.32422 1.7074,0.0605 1.6831,-0.0447 3.13867,-0.0645 -1.03947,2.94336 -1.40414,4.0006 -3.23632,9.13086 a 5.2005985,5.2005985 0 0 0 -0.002,0.002 c -0.18589,0.5214 -0.15287,0.48152 -0.24804,0.74804 -2.89916,8.11197 -6.26902,17.33524 -9.08204,24.82032 -0.38821,0.079 -0.79998,0.15816 -1.30859,0.25195 a 5.2005985,5.2005985 0 0 0 -0.002,0 c -0.49465,0.0915 -0.66879,0.13723 -0.5293,0.11328 a 5.2005985,5.2005985 0 0 0 -0.0547,0.01 c -0.17462,0.0319 -0.12939,0.0244 -0.26367,0.0488 -0.88023,0.14206 -1.77474,0.25582 -2.61328,0.31641 -0.46216,0.0331 -0.87298,0.0514 -1.24023,0.0508 a 5.2005985,5.2005985 0 0 0 -0.002,0 c -0.14669,-2.2e-4 -0.39159,-0.0177 -0.79492,-0.0488 l 0.002,0.002 c -0.39121,-0.0303 -0.49786,-0.0387 -0.27929,-0.0137 l 0.043,0.006 c -1.2855,-0.15831 -1.25187,-0.14248 -0.11329,0 l -0.004,0 c 0.3854,0.0483 0.35497,0.0437 -0.22461,-0.0566 a 5.2005985,5.2005985 0 0 0 -0.0117,-0.004 c -0.29447,-0.0502 -0.37282,-0.0692 -0.25391,-0.0391 -1.21987,-0.30895 -2.38682,-0.55823 -3.49414,-0.79296 1.00217,0.21585 0.80731,0.15995 -0.11133,-0.0352 l -0.01,-0.002 c -1.0796,-0.22859 -2.09089,-0.43598 -3.01953,-0.65625 l -0.004,-0.002 c 0.33172,0.0787 0.28855,0.062 -0.1914,-0.0547 a 5.2005985,5.2005985 0 0 0 -0.008,-0.002 c -0.48872,-0.11802 -0.89783,-0.21425 -1.21093,-0.30078 l 0.006,0 c -0.49825,-0.1382 -1.01563,-0.30352 -1.54101,-0.48828 a 5.2005985,5.2005985 0 0 0 -0.002,0 c -0.48728,-0.17108 -0.94778,-0.36065 -1.41407,-0.58008 a 5.2005985,5.2005985 0 0 0 -0.004,-0.002 c -0.32398,-0.15225 -0.49117,-0.23074 -0.49805,-0.23438 -2.71891,-1.43809 -4.56266,-3.13116 -5.5293,-10.20117 -0.26892,-1.96696 -0.69989,-3.90845 -1.35351,-5.83594 0.62817,-1.91076 0.57788,-3.99819 0.0605,-5.52148 -0.7348,-2.16361 -1.96104,-3.70571 -3.29493,-5.05664 -2.66776,-2.70187 -5.47062,-4.80737 -9.72851,-5.21289 -3.03457,-0.289 -5.51479,0.76946 -7.52344,2.28711 1.05771,-1.94292 1.82626,-4.15769 1.05859,-6.9043 2.22504,-0.33284 4.5877,-0.83431 6.95118,-1.79687 1.60354,-0.65307 3.18879,-1.45675 4.67382,-2.8086 1.48504,-1.35185 2.98192,-3.6417 2.95313,-6.375 -0.0252,-2.38863 -0.8023,-5.61234 -3.37695,-7.91406 -2.57466,-2.30172 -6.19378,-3.13527 -10.32227,-2.91211 -0.008,4.6e-4 -0.0189,0.003 -0.0273,0.004 0.49638,-3.62554 -0.57785,-7.18186 -3.79688,-9.11328 -1.70756,-1.02456 -3.58334,-1.38251 -5.4375,-1.33399 -3.11194,0.0814 -6.33544,1.32611 -9.28125,3.73633 -0.92661,0.75814 -1.55608,1.54751 -2.24414,2.33008 -0.56216,-0.52015 -1.07923,-1.08108 -1.75195,-1.49219 -2.3613,-1.44301 -5.34945,-2.55959 -8.88282,-2.52148 -3.53336,0.0381 -7.70978,1.6653 -10.449214,5.22656 -1.619536,2.10539 -2.045081,4.45338 -2.017578,6.78515 -0.96272,0.12916 -1.930383,0.11587 -2.880859,0.40039 -3.713084,1.11151 -7.518207,3.78908 -9.091797,8.16016 -0.705337,1.95927 -0.914859,4.47509 0.105469,6.6875 1.020327,2.21241 2.906629,3.54272 4.574218,4.27539 0.655214,0.28788 1.325217,0.32569 1.982422,0.51563 -0.747679,1.08923 -1.365857,2.30975 -1.68164,3.88867 -0.327725,1.63862 -1.262249,4.24167 -0.708985,7.83789 0.276632,1.79811 1.493112,4.61829 4.203125,5.82031 2.710013,1.20202 5.16724,0.56292 7.335939,-0.33008 0.96449,-0.39714 1.82258,-1.08368 2.74023,-1.61718 0.33521,0.99478 0.79405,2.02682 1.61914,3.0957 1.7678,2.2901 5.51377,3.58847 8.52539,3.13672 0.51201,-0.0768 1.0616,-0.34085 1.59571,-0.48242 -0.42059,1.2762 -0.5828,2.69042 -0.24219,3.99609 0.5692,2.18194 1.93247,4.14664 3.60547,5.4707 0.002,0.0842 -0.0233,0.14026 -0.0195,0.22657 0.0645,1.47215 0.35919,2.30093 0.71289,2.89648 -0.51218,0.34221 -1.02573,0.66171 -1.53321,1.13672 -1.4626,1.36903 -2.88063,3.82068 -2.77343,6.47851 0.0775,1.92258 1.0899,3.75667 2.17969,4.81836 1.08978,1.0617 2.18328,1.59033 3.16992,1.97266 1.97326,0.76467 3.69441,0.94456 5.07422,1.0332 a 5.2005985,5.2005985 0 0 0 0.66601,0 c 0.62942,-0.0402 1.10956,-0.11596 1.4707,-0.16797 a 5.2005985,5.2005985 0 0 0 0.008,0 c 0.4386,-0.0638 0.90231,-0.14387 1.38672,-0.24609 0.0937,-0.0197 0.41532,-0.0682 0.93359,-0.19726 a 5.2005985,5.2005985 0 0 0 0.004,-0.002 c 0.0693,-0.0173 0.22523,-0.052 0.45507,-0.11328 0.52583,-0.14013 0.97989,-0.28524 1.36719,-0.40625 2.46435,-0.76997 4.33091,-1.59207 6.54297,-2.51562 0.30356,6.11121 -0.15091,12.02146 -0.38281,17.16211 a 5.2005985,5.2005985 0 0 0 0.40625,2.25976 l 1.96875,4.65625 a 5.2005985,5.2005985 0 0 0 9.96875,-1.57227 c 0.49827,-5.68864 1.30686,-14.25853 0.75586,-23.54687 1.12125,0.91049 2.30813,2.0601 3.61523,3.41602 2.65267,2.75174 5.71111,6.26167 10.49414,8.34961 3.79082,1.6548 8.24795,2.49769 12.63672,3.13281 -13.08522,44.04402 -7.84186,77.21304 6.01563,100.0039 14.4886,23.82885 37.63547,36.1876 57.14062,39.29493 4.99169,0.79521 9.58786,1.17603 14.24609,1.625 -1.7508,1.35727 -4.59605,3.12471 -8.5664,4.73242 -2.24248,0.90804 -4.70731,1.78207 -7.23828,2.58008 -0.29435,0.0928 -0.4131,0.13649 -0.35743,0.11914 a 5.2005985,5.2005985 0 0 0 -0.002,0 c -0.72216,0.22522 -1.44933,0.44324 -2.1914,0.66015 -0.49037,0.14313 -0.97952,0.28394 -1.47266,0.42188 a 5.2005985,5.2005985 0 0 0 -0.002,0 c -0.31986,0.0896 -0.69408,0.18652 -1.11524,0.30078 0.10285,-0.0279 0.0264,-0.01 -0.23633,0.0605 a 5.2005985,5.2005985 0 0 0 -0.006,0 c -4.23774,1.14161 -8.44479,2.06806 -12.10937,2.71289 -0.30295,0.0533 -0.54381,0.0997 -0.6582,0.11914 -1.95191,0.33083 -3.80771,0.58154 -5.31055,0.73437 a 5.2005985,5.2005985 0 0 0 -0.004,0 c -0.3482,0.0356 -0.44028,0.0507 -0.21679,0.0293 a 5.2005985,5.2005985 0 0 0 -0.004,0 c -0.0885,0.009 -0.17863,0.0159 -0.30664,0.0273 a 5.2005985,5.2005985 0 0 0 -0.002,0 c -1.38301,0.12427 -2.54535,0.14475 -3.06446,0.11328 -2.0172,-0.12225 -3.43883,-1.05163 -6.81445,-2.82617 -3.37562,-1.77453 -8.28156,-3.88712 -15.54688,-4.47851 -8.98184,-0.73112 -16.3436,4.64411 -21.5957,10.21289 -2.62605,2.78439 -4.78134,5.72779 -6.41406,8.43554 -1.63272,2.70775 -2.77171,4.91771 -3.26953,7.53125 -0.3925,2.0606 -0.89593,4.3292 -0.0606,7.20118 0.83538,2.87197 3.7124,5.46107 6.7207,6.39453 a 5.2005985,5.2005985 0 0 0 1.52149,0.23242 c 2.13328,0.56489 4.35829,0.75633 7.38672,0.6875 12.32369,-0.28008 21.02734,-4.92774 21.02734,-4.92774 a 5.2005985,5.2005985 0 0 0 0.55664,-0.3457 c 0,0 0.38902,-0.25159 0.85938,-0.42383 0.18104,-0.0663 0.17652,-0.054 0.16406,-0.0566 3.0952,1.62131 5.94899,1.52991 9.5332,1.25782 3.8369,-0.29128 8.28364,-1.21192 12.95508,-2.90821 1.70441,-0.6189 3.69922,-1.03506 5.55273,-1.55078 -0.2155,0.17705 -0.45114,0.34094 -0.6621,0.51953 -3.40483,2.8824 -6.32732,6.30954 -8.57032,9.11328 -3.42204,4.27755 -5.93683,9.85464 -5.08984,15.96094 9e-5,6.7e-4 -9e-5,0.001 0,0.002 0.0627,0.46133 0.1459,0.90034 0.24219,1.3125 a 5.2005985,5.2005985 0 0 0 0.0176,0.0703 c 0.19892,0.80063 0.22064,0.84027 0.0371,0.11523 l -0.008,-0.0332 c 0.058,0.23566 0.15283,0.68133 0.375,1.29883 a 5.2005985,5.2005985 0 0 0 0.01,0.0312 c 0.21488,0.5857 0.28483,0.68317 0.19336,0.45507 0.17715,0.43394 0.38481,0.86437 0.60351,1.26172 a 5.2005985,5.2005985 0 0 0 0.004,0.008 c -0.0604,-0.10924 0.0331,0.11296 0.33203,0.58985 5e-4,7.9e-4 0.001,0.001 0.002,0.002 0.57827,0.92218 1.27438,1.73721 2.04688,2.44531 4.3304,3.96955 9.43251,3.66189 13.43359,3.45704 2.06345,-0.10565 2.43736,-0.27806 3.77735,-0.5 2.11413,2.49255 4.68205,4.33428 7.53515,5.2832 2.86839,0.954 5.79462,0.84228 8.66797,0.375 0.39921,0.32193 0.66828,0.64812 1.14844,0.96875 l -0.14258,-0.0977 c 0.0675,0.0484 0.25482,0.19323 0.58984,0.41602 a 5.2005985,5.2005985 0 0 0 0.0957,0.0625 c 0.20023,0.12693 0.33577,0.20797 0.47461,0.29297 0.60788,0.37193 0.50443,0.29283 0.15234,0.0781 3.12886,1.88869 6.86353,2.68255 10.30273,1.94922 4.05677,-0.76971 7.3004,-3.09398 9.7754,-6.05664 3.2413,0.80012 6.63294,0.66876 9.67382,-0.3125 4.58872,-1.48073 8.71339,-4.3166 12.79883,-7.72656 1.08426,-0.90499 8.33497,-4.2915 15.49805,-6.52735 0.91453,-0.28545 1.8031,-0.55867 2.68359,-0.81445 6.29706,-1.82931 12.76434,-3.12299 15.48438,-3.23633 5.86626,-0.24442 12.98137,-1.34319 18.40625,-2.75586 1.15263,-0.30015 2.17547,-0.62761 3.04101,-0.91992 1.34298,-0.45354 2.52126,-0.81006 3.99024,-1.79883 0.58655,-0.3948 1.05967,-0.82809 1.44336,-1.25781 1.86382,-2.08748 2.87298,-4.82148 2.97265,-7.28125 0.0997,-2.45977 -0.50143,-4.59842 -1.21875,-6.49805 -1.43464,-3.79924 -3.43778,-7.00356 -4.33008,-9.36523 -1.31665,-3.48487 -2.12602,-9.43338 -2.70312,-15.47461 0.0141,0.005 0.0602,0.0208 0.0723,0.0254 l 0,-0.002 c 1.9637,0.7374 3.93906,1.5091 5.93554,2.28906 a 5.2005985,5.2005985 0 0 0 0.002,0 c 0.58025,0.22659 1.14119,0.44309 1.67968,0.6543 2.5364,0.99531 5.06968,1.98112 7.60547,2.96093 -0.11185,-0.0444 -0.10563,-0.0858 -0.20703,-0.13085 0.10289,0.0464 0.10482,0.0891 0.21875,0.13476 l -0.0117,-0.004 c 0.005,0.002 0.009,0.004 0.0137,0.006 0.0378,0.0151 0.0332,0.0299 0.0723,0.0449 l -0.01,-0.002 c 1.27588,0.49286 2.53136,0.95624 3.75391,1.41406 -0.2885,-0.1154 -0.31004,-0.21661 -0.53125,-0.33398 0.22685,0.1223 0.27825,0.2332 0.57812,0.35156 7.7e-4,2.9e-4 0.001,0.002 0.002,0.002 0.0435,0.0172 0.0388,0.0338 0.084,0.0508 a 5.2005985,5.2005985 0 0 0 0.006,0.002 c 1.33869,0.50147 2.63669,0.95557 3.88672,1.40234 2.62332,0.93702 5.27335,1.84305 7.97852,2.66993 1.29225,0.39553 2.58402,0.77211 3.90234,1.13281 0.0294,0.009 0.0161,-0.004 0.0449,0.004 a 5.2005985,5.2005985 0 0 0 0.11524,0.0332 c 1.30119,0.35402 2.64748,0.71741 4.05859,1.04687 a 5.2005985,5.2005985 0 0 0 0.16211,0.0352 c 0.10553,0.0211 0.0652,0.0122 0.16016,0.0312 0.1839,0.0428 0.36359,0.0858 0.56445,0.13086 2.45896,0.55195 4.9607,1.02802 7.50586,1.38672 0.7181,0.10137 1.40196,0.18721 2.09961,0.26758 a 5.2005985,5.2005985 0 0 0 0.0937,0.01 c 1.02041,0.0991 1.03835,0.0993 0.0254,0 l -0.0859,-0.01 c 2.13768,0.24536 4.30087,0.40175 6.46484,0.46875 8.32216,0.25764 18.59591,-0.50967 27.85352,-2.32618 9.25761,-1.8165 17.49617,-3.8554 22.37305,-9.97265 1.05947,-1.32894 2.23318,-3.47185 1.65429,-6.09766 -0.57889,-2.62581 -2.56161,-4.0277 -3.88672,-4.67969 -1.59411,-0.78434 -3.01684,-1.10381 -4.41406,-1.31836 -0.27188,-0.55211 -0.59778,-1.13701 -0.79687,-1.60156 -0.96444,-2.25036 -2.42039,-3.65133 -4.09375,-4.81836 -1.67291,-1.16671 -3.5987,-2.14089 -6.26953,-2.11328 l -0.002,0 c -1.12303,0.0117 -2.3713,0.43632 -3.55664,1.06445 -0.0457,-0.8216 -0.0338,-1.64593 -0.14258,-2.44336 -0.25499,-1.86996 -1.12174,-3.8843 -2.6582,-5.24804 -1.53646,-1.36374 -3.39578,-1.85656 -4.82422,-1.95508 -2.84673,-0.19636 -4.74565,0.63655 -5.88476,1.05078 -0.52375,0.19045 -1.63222,0.49291 -2.86133,1.26563 -0.37545,0.23603 -1.0758,0.84905 -1.47266,1.14062 -0.0246,-0.79789 -0.0287,-1.64456 -0.0547,-2.37109 -0.0701,-1.96234 -0.0567,-4.02039 -0.0898,-3.62305 0.31312,-3.75739 -2.25153,-6.06406 -4.17383,-7.16016 -1.9223,-1.09609 -3.92673,-1.61223 -6.23828,-1.49609 -1.12218,0.0564 -2.26142,0.29705 -3.38672,0.81641 -2.12092,0.97889 -3.5309,2.04407 -5.43554,3.32617 0.98884,-3.44718 1.93945,-7.09966 1.93945,-10.57422 0,-2.75778 -0.38241,-5.31669 -2.00977,-7.62695 -1.62736,-2.31027 -4.71879,-3.61651 -7.18554,-3.60352 -2.19834,0.0118 -4.13927,0.62393 -6.0586,1.50977 -0.32768,0.15124 -0.8215,0.50187 -1.15625,0.66797 0.0991,-0.24824 0.18226,-0.44935 0.2793,-0.69336 0.99887,-2.51167 1.68817,-4.03912 2.1875,-5.81446 1.03359,-3.675 1.16995,-7.44313 -0.8457,-10.68164 -1.70207,-2.73467 -4.73732,-4.13116 -7.72852,-4.50976 0.69854,-1.0032 1.32943,-2.08407 1.85742,-3.60938 1.23796,-3.57634 0.60041,-7.99676 -1.87304,-10.66992 -2.47346,-2.67316 -5.6997,-3.65253 -8.98438,-4.06641 -0.90463,-0.11398 -2.016,-0.2427 -2.97266,-0.40039 1.5305,-3.02051 3.09636,-6.24095 3.9961,-8.74023 1.23035,-3.41765 0.78901,-7.38663 -1.31445,-10.13477 -2.10347,-2.74814 -5.41269,-4.10794 -8.73047,-4.16992 -0.51354,-0.01 -0.95657,0.0178 -1.32227,0.0469 a 5.2005985,5.2005985 0 0 0 -0.002,0 c -0.51613,0.0413 -1.43805,0.22585 -2.02149,0.29687 0.3979,-0.78685 0.74532,-1.38635 1.125,-2.17383 0.73233,-1.51888 1.40442,-2.99348 1.94532,-4.36328 0.5409,-1.3698 1.03827,-2.33148 1.15039,-4.34961 0.12266,-2.20796 -0.85861,-4.46097 -2.11524,-5.8164 -1.25663,-1.35544 -2.63044,-2.05971 -3.90039,-2.54493 -2.53989,-0.97042 -4.54972,-1.25196 -7.07422,-0.79296 -0.0399,0.007 -0.19908,0.0299 -0.24023,0.0371 0.8459,-1.46631 1.6291,-2.63746 2.41601,-4.16211 1.99718,-3.86952 2.14908,-8.16457 0.61524,-11.69922 -1.53361,-3.53411 -5.05029,-6.42462 -9.29883,-6.62891 l -0.002,0 c -0.594,-0.0284 -1.17054,-9.6e-4 -1.69336,0.0566 a 5.2005985,5.2005985 0 0 0 -0.004,0 c -1.20649,0.13406 -2.78018,0.40509 -4.08789,0.61914 1.66051,-2.75091 3.29029,-5.66417 4.23047,-8.36719 1.35047,-3.88261 0.25585,-8.23027 -2.42969,-11.11914 -2.53277,-2.72453 -6.36937,-4.18946 -10.59375,-4.15625 0.0342,-0.0477 0.0636,-0.0793 0.0977,-0.12695 1.06093,-1.48631 2.05738,-2.95441 2.89062,-4.34375 0.83325,-1.38934 1.55099,-2.42609 1.98828,-4.4668 0.88734,-4.14083 -1.06434,-8.58558 -3.92187,-10.64257 -2.85753,-2.057 -5.97929,-2.55652 -8.89844,-2.42383 -1.66178,0.0755 -3.71758,0.42894 -5.73633,0.78515 1.54115,-3.31552 3.0262,-6.37375 4.00782,-8.7832 1.40585,-3.45073 1.3757,-7.78916 -1.00782,-10.68945 -2.38351,-2.90029 -5.68144,-3.72024 -8.78515,-3.95899 -0.53165,-0.0409 -1.19773,-0.10742 -2.05469,-0.10742 -0.82994,0 -1.67379,0.19468 -2.48437,0.27149 1.2359,-1.29754 2.40958,-2.65733 3.35937,-4.13477 2.54785,-3.96333 2.2663,-9.17912 0.0703,-12.54883 -2.08814,-3.20422 -5.25532,-5.13071 -8.69531,-6.25976 2.44171,-1.30898 4.58652,-2.64558 6.04102,-3.61524 2.1771,-1.4514 4.12396,-3.30336 5.03125,-6.04101 0.90729,-2.73766 0.19839,-5.89538 -1.19727,-8.06641 -0.92078,-1.43233 -2.29943,-3.21091 -3.97461,-5.08203 0.70484,-1.7146 1.40255,-3.43697 2.08398,-5.21094 1.5074,-0.64258 3.22343,-1.38546 3.88868,-1.62305 2.84728,-1.01689 4.80462,-2.96752 6.05664,-5.59375 1.25201,-2.62622 1.46019,-6.53036 -0.64453,-9.59179 -0.47702,-0.69385 -0.9877,-1.25033 -1.50782,-1.75782 1.72017,-1.1696 3.49558,-2.36457 4.94532,-3.375 1.47766,-1.02988 2.74591,-2.19996 3.625,-3.86523 0.87908,-1.66527 1.08839,-3.88497 0.63476,-5.53906 -0.90726,-3.30819 -2.87679,-4.47345 -3.58789,-5.12695 -0.88849,-0.81653 -1.80321,-1.39959 -2.7168,-1.99415 0.91542,-0.84001 1.76594,-1.57747 2.66602,-2.46289 1.80254,-1.77317 3.26844,-2.90602 4.58789,-5.54492 1.62877,-3.25754 0.37613,-7.55655 -1.60547,-9.59765 -1.9816,-2.04111 -4.27456,-3.00642 -6.67187,-3.50586 -0.49067,-0.10223 -0.93994,-0.0736 -1.4043,-0.125 0.33991,-1.25231 0.62391,-2.5816 0.66602,-4.11133 a 5.2005985,5.2005985 0 0 0 0.002,-0.0156 c 0.004,-0.15976 0.001,-0.0682 0,-0.0332 l 0,-0.0176 c 0.0111,-0.49063 -0.01,-0.99182 -0.0566,-1.44922 a 5.2005985,5.2005985 0 0 0 -0.002,-0.006 c -0.10749,-1.04079 -0.36565,-2.20883 -1.04296,-3.41601 -0.19475,-0.34712 -0.39994,-0.70332 -0.69727,-1.13281 a 5.2005985,5.2005985 0 0 0 -0.0508,-0.0723 c -0.23548,-0.32831 -0.22173,-0.29509 -0.20117,-0.26172 l -0.01,-0.0117 c -0.62852,-0.82187 -0.81449,-1.01225 -0.10937,-0.13086 a 5.2005985,5.2005985 0 0 0 -0.0215,-0.0273 c -0.093,-0.1147 -0.28293,-0.36844 -0.71484,-0.77734 -0.80576,-0.7635 -1.73757,-1.22672 -2.33008,-1.45508 a 5.2005985,5.2005985 0 0 0 -0.0254,-0.01 c -0.59322,-0.22504 -0.8088,-0.25029 -0.67383,-0.21289 a 5.2005985,5.2005985 0 0 0 -0.004,0 c 1.19944,0.33132 0.94304,0.16414 -0.44922,-0.13476 a 5.2005985,5.2005985 0 0 0 -0.041,-0.008 c -0.14096,-0.0291 -0.0553,0.009 -0.17187,-0.01 a 5.2005985,5.2005985 0 0 0 -0.0664,-0.0137 c -1.8715,-0.34284 -2.94532,-0.22959 -5.35156,-0.41407 -0.61104,-0.0468 -1.14554,0.0516 -1.72071,0.0762 0.20971,-1.78602 0.49514,-3.50341 0.45899,-5.48633 0.003,0.16938 0.005,0.1337 0,-0.10938 -0.0283,-1.33302 -0.12991,-2.70554 -0.33789,-4.0957 -0.241,-1.61084 -0.9919,-3.49359 -2.51758,-4.81836 -1.52568,-1.32477 -3.43136,-1.75036 -4.8418,-1.76758 z m 19.73047,31.9043 c -6.5e-4,0.005 -0.005,0.0208 -0.006,0.0234 0.003,-0.0109 0.002,-0.0127 0.006,-0.0234 z M 124.60156,280.4668 c 0.42296,0.48294 0.7193,0.85685 1.12305,1.32031 -0.65299,0.12823 -1.38612,0.34219 -2.11914,0.54883 0.33181,-0.62455 0.74855,-1.17865 0.99609,-1.86914 z m 168.77539,189.4375 c 6.92428,0.32705 13.80267,0.73718 20.78711,1.57226 1.25711,0.15417 2.50706,0.31562 3.74219,0.48633 0.0585,0.008 0.11541,0.0172 0.17383,0.0254 0.24035,1.19513 0.6954,2.81056 0.66797,3.24805 -0.0592,0.94417 -0.14934,1.94777 -0.26172,2.98633 a 5.2005985,5.2005985 0 0 0 0,0.008 c -0.0186,0.17404 -0.0381,0.34023 -0.0586,0.51758 -0.10131,0.87186 -0.21286,1.72412 -0.3457,2.56445 -1.20191,7.60317 -4.2351,14.50828 -8.21484,16.62891 -9.51259,5.06885 -23.81769,8.11331 -35.55664,9.65429 -10.05547,1.32 -16.9927,1.56529 -19.11524,1.62696 -1.0098,-0.83014 -2.08514,-1.78278 -4.75195,-3.61133 -2.35275,-1.6132 -4.86764,-3.3418 -7.77539,-4.50195 9.05829,-1.27214 18.6251,-2.08712 27.7793,-2.93165 2.32795,-0.21476 6.78555,0.35748 11.02343,0.74415 2.11894,0.19333 4.20882,0.34176 6.36914,0.12695 2.16033,-0.21482 4.89902,-0.72888 6.9375,-3.37891 1.24914,-1.62387 3.24156,-4.01796 3.8086,-7.64648 0.56704,-3.62853 -0.5201,-7.57655 -3.08008,-12.02344 -0.38146,-0.66263 -1.35275,-3.90342 -2.12891,-6.0957 z m 68.21094,14.27734 c 0.003,0.004 0.0834,0.25959 0.36914,0.5918 -0.31735,-0.35027 -0.37201,-0.59585 -0.36914,-0.5918 z m 3.84375,1.4707 c 0.005,0.007 0.0949,0.26493 0.36719,0.58789 -0.31711,-0.3508 -0.37226,-0.59503 -0.36719,-0.58789 z m 18.375,7.0918 c 1.23982,0.30573 2.04275,0.15764 2.05274,0.15625 0.0102,-0.001 -0.71089,0.20864 -2.05274,-0.15625 z"
       inkscape:original="M 291.28125 119.46875 C 288.66867 119.43685 284.53203 122.18783 282.25 123.5 C 278.57635 125.61235 274.49031 130.97531 271.71875 135.0625 C 271.72925 134.986 271.7399 134.92094 271.75 134.84375 C 272.23282 131.22361 272.39367 126.8521 271.09375 123.78125 C 271.01985 123.60659 270.95952 123.44117 270.875 123.28125 C 270.8423 123.22485 270.81765 123.17667 270.78125 123.125 C 269.02498 120.02812 265.28566 119.93512 262.53125 124.375 C 258.70505 130.54252 255.74284 135.05288 253.96875 142.78125 C 252.55405 143.18267 251.13055 143.59111 249.65625 144.09375 C 242.58346 146.5051 234.93034 152.12949 227.84375 154.5 C 223.75439 155.86792 218.10683 152.94724 215 155.9375 C 214.45318 156.4638 214.12951 157.09713 213.9375 157.8125 C 211.38933 158.29879 209.94576 169.21248 211.71875 171.15625 C 197.13222 183.23475 178.50396 200.10771 179.28125 200.21875 C 179.28125 200.21875 170.20887 202.19783 166.71875 205.3125 C 159.85707 211.43604 155.14832 219.93831 156.71875 229 C 157.52577 233.65664 162.06364 236.51559 165 240.21875 C 166.1436 241.661 167.15675 243.23326 168.125 244.84375 C 169.37824 246.9274 170.55037 249.09352 171.78125 251.1875 C 171.80015 251.2197 171.82485 251.24915 171.84375 251.28125 C 172.32782 252.10247 172.82945 252.89808 173.34375 253.6875 C 173.73101 254.28213 174.11762 254.87009 174.53125 255.4375 C 174.81413 255.82588 175.07667 256.18992 175.375 256.5625 C 175.393 256.585 175.4195 256.6026 175.4375 256.625 C 175.68652 256.93405 175.95733 257.23484 176.21875 257.53125 C 176.40465 257.74207 176.58845 257.95246 176.78125 258.15625 C 177.02391 258.41257 177.27671 258.66197 177.53125 258.90625 C 177.58975 258.96255 177.65955 259.0069 177.71875 259.0625 C 177.84136 259.17748 177.96821 259.29423 178.09375 259.40625 C 178.37486 259.65731 178.64081 259.92099 178.9375 260.15625 C 178.9489 260.16525 178.95735 260.1785 178.96875 260.1875 C 179.30123 260.44988 179.64629 260.69662 180 260.9375 C 187.11187 265.7808 206.0625 264.15625 206.0625 264.15625 C 206.0625 264.15625 203.56668 271.26306 200.3125 280.375 C 200.17317 280.7658 200.20369 280.72961 200.0625 281.125 C 196.85474 290.10049 192.96783 300.8093 190 308.625 C 189.31409 308.80304 188.58555 308.98309 187.8125 309.15625 C 187.70596 309.18025 187.60774 309.19515 187.5 309.21875 C 186.92158 309.34523 186.32088 309.45146 185.71875 309.5625 C 185.5203 309.5992 185.32473 309.6532 185.125 309.6875 C 185.0922 309.6935 185.06395 309.71325 185.03125 309.71875 C 183.91214 309.9085 182.77781 310.04622 181.6875 310.125 C 181.12957 310.165 180.59056 310.1884 180.0625 310.1875 C 179.65059 310.18689 179.26075 310.1548 178.875 310.125 C 178.7177 310.1128 178.55834 310.11115 178.40625 310.09375 C 178.36565 310.08875 178.32145 310.09875 178.28125 310.09375 C 178.11777 310.07325 177.96909 310.0271 177.8125 310 C 177.58377 309.961 177.36895 309.9289 177.15625 309.875 C 176.05432 309.59592 174.94914 309.35931 173.84375 309.125 C 173.81125 309.118 173.7824 309.10055 173.75 309.09375 C 172.68763 308.86877 171.63207 308.65264 170.59375 308.40625 C 170.51945 308.38855 170.44906 308.36175 170.375 308.34375 C 169.91433 308.2325 169.4518 308.12486 169 308 C 168.36431 307.82368 167.73772 307.62172 167.125 307.40625 C 166.46995 307.17627 165.84011 306.9174 165.21875 306.625 C 164.97861 306.51215 164.73427 306.40516 164.5 306.28125 C 160.48477 304.1575 157.36368 300.333 156.25 292.1875 C 155.85974 289.33309 155.34512 286.88563 154.28125 285.1875 C 154.51561 285.00447 154.7019 284.82759 154.8125 284.6875 C 157.49107 281.29464 150.34375 275.3884 146.59375 275.03125 C 142.89033 274.67855 138.71197 279.37647 138.5625 283.46875 L 137.5625 283.875 C 137.4772 283.76274 137.39927 283.64263 137.3125 283.53125 C 135.96175 281.79745 133.42276 277.87248 130.84375 273.8125 C 134.2022 272.38721 136.42655 268.21404 135.53125 266.125 C 134.70507 264.19724 132.70086 262.03373 129.375 260.5 C 131.96135 260.5675 135.18788 260.61862 137.84375 260.40625 C 142.30804 260.04911 150.0393 258.04335 150 254.3125 C 149.9687 251.34064 148.38839 248.26786 141.78125 248.625 C 138.07531 248.82532 134.11173 249.5245 129.875 251.90625 C 131.72658 249.86853 132.97046 248.54036 134.65625 246.65625 C 137.69196 243.2634 136.78571 239.85268 135 238.78125 C 134.33036 238.37946 133.43427 238.15978 132.375 238.1875 C 130.60956 238.2337 128.41637 238.97751 126.25 240.75 C 121.59953 244.55493 121.72846 247.03905 120.9375 250.28125 C 119.69814 246.21778 118.81331 243.56646 116.25 242 C 113.03571 240.03571 107.32143 238.79465 103.75 243.4375 C 101.92489 245.81014 102.33036 250.41072 105.1875 252.375 C 105.6437 252.68864 106.25575 253.03175 106.9375 253.40625 C 106.02264 253.10541 105.13469 252.80557 104.28125 252.53125 C 99.281254 250.92411 92.370849 252.26501 90.53125 257.375 C 88.924108 261.83928 93.75446 262.90625 100.71875 262.90625 C 103.25122 262.90625 105.54043 262.61063 107.4375 262.25 C 101.16042 265.19341 96.28679 269.1598 95.71875 272 C 95.004464 275.57143 93.397321 282 99.46875 279.5 C 102.36513 278.30737 106.17397 275.29091 109.34375 272.25 C 108.56417 274.90277 108.30112 277.05674 108.5625 278.625 C 109.09821 281.83929 109.99107 284.31697 113.5625 283.78125 C 117.13393 283.24554 119.91123 281.17704 120.53125 275.03125 C 120.62055 274.14617 120.65987 272.44119 120.6875 270.5625 C 120.82981 272.41458 123.10382 273.729 126.0625 274.15625 C 129.46283 278.0754 132.80087 281.73242 135 284.6875 C 135.0367 284.7368 135.05745 284.79443 135.09375 284.84375 L 131.3125 286.3125 C 130.62585 286.353 129.99938 286.42051 129.46875 286.46875 C 127.50446 286.64733 119.82618 287.70347 120.71875 291.125 C 121.45374 293.94246 123.44761 294.81109 125.78125 295.03125 C 125.18788 295.72347 124.4211 296.82085 124.46875 297.90625 C 124.51055 298.86001 128.09306 301.4026 130.53125 301.65625 C 130.59325 301.66225 130.65665 301.65025 130.71875 301.65625 C 130.78665 301.85429 130.83411 302.0626 130.90625 302.25 C 128.27962 303.31014 120.7167 304.51249 120.875 308.4375 C 120.9589 310.51823 124.35937 311.14774 126.4375 311.28125 C 126.78162 311.25925 127.14305 311.20765 127.5 311.15625 C 127.84939 311.10545 128.20229 311.0448 128.5625 310.96875 C 128.80726 310.91715 129.06333 310.87455 129.3125 310.8125 C 129.43379 310.7822 129.56525 310.75135 129.6875 310.71875 C 130.06544 310.61803 130.45764 310.49564 130.84375 310.375 C 134.95261 309.09121 139.47803 306.79657 143.4375 305.53125 C 144.86705 314.68864 144.05374 323.4858 143.75 330.21875 L 145.71875 334.875 C 146.35725 327.58544 147.49163 316.19404 145.78125 304.9375 C 147.34785 304.61536 148.78173 304.51826 150 304.875 C 157.16385 307.25537 160.92524 315.76112 167.84375 318.78125 C 172.1687 320.66922 179.25964 321.73722 185.03125 322.34375 C 154.78171 414.44633 206.37351 455.10842 242.375 460.84375 C 249.45126 461.97105 256.16583 462.66208 262.65625 463.15625 C 262.90542 465.71942 262.67005 468.18188 261.375 469.75 C 259.16427 472.4269 254.63433 474.95068 249.1875 477.15625 C 246.79309 478.12581 244.20718 479.04114 241.5625 479.875 C 241.43539 479.915 241.31491 479.9603 241.1875 480 C 240.42958 480.23638 239.67177 480.46374 238.90625 480.6875 C 238.39589 480.83647 237.88674 480.98186 237.375 481.125 C 236.99085 481.2326 236.60292 481.33328 236.21875 481.4375 C 236.13605 481.4599 236.05143 481.4778 235.96875 481.5 C 231.57896 482.68258 227.23669 483.63849 223.40625 484.3125 C 223.18345 484.3517 222.93787 484.4003 222.71875 484.4375 C 220.65919 484.78663 218.70389 485.05183 217.0625 485.21875 C 216.9842 485.22675 216.88967 485.2426 216.8125 485.25 C 216.69235 485.2616 216.58604 485.27075 216.46875 485.28125 C 214.91961 485.42044 213.5902 485.46475 212.625 485.40625 C 205.74468 484.98926 203.207 479.15608 190.15625 478.09375 C 177.1055 477.03142 165.4164 494.7592 164.40625 500.0625 C 163.69567 503.79303 163.62067 506.51502 167.5 507.71875 C 167.5698 507.70475 167.64836 507.7012 167.71875 507.6875 C 169.01615 508.233 171.18921 508.48718 174.75 508.40625 C 185.86168 508.15372 193.4375 504.09375 193.4375 504.09375 C 193.4375 504.09375 196.97461 501.57852 199.5 503.09375 C 202.02538 504.60898 209.7191 504.38753 218.1875 501.3125 C 233.12328 495.88905 252.56373 494.60572 269.96875 493 C 276.84431 492.36569 288.13086 495.783 290.65625 492.5 C 293.18163 489.21701 295.46037 486.34179 291 478.59375 C 289.43014 475.86677 287.51028 469.79599 285.9375 464.34375 C 295.53497 464.71594 304.98805 465.1416 314.78125 466.3125 C 316.06903 466.47036 317.35318 466.63668 318.625 466.8125 C 319.88069 466.98795 321.13608 467.17037 322.40625 467.375 C 323.33678 470.23514 324.07952 473.29781 323.9375 475.5625 C 323.8722 476.60395 323.77522 477.6818 323.65625 478.78125 C 323.63605 478.97074 323.61575 479.15311 323.59375 479.34375 C 323.48685 480.26402 323.36652 481.19021 323.21875 482.125 C 321.90874 490.41202 318.847 499.0493 312.3125 502.53125 C 291.11375 513.82716 253.5625 514.5 253.5625 514.5 C 253.5625 514.5 242.87054 505.3884 237.15625 505.03125 C 231.44197 504.67411 224.62947 512.17411 220.34375 517.53125 C 217.68649 520.85282 215.80027 525.61639 216.34375 529.53125 C 216.38215 529.81763 216.43545 530.09869 216.5 530.375 C 216.508 530.4072 216.52315 530.43675 216.53125 530.46875 C 216.59695 530.73561 216.65805 530.99444 216.75 531.25 C 216.785 531.3454 216.8362 531.43759 216.875 531.53125 C 216.97701 531.78113 217.08861 532.01355 217.21875 532.25 C 217.28195 532.36433 217.33636 532.48282 217.40625 532.59375 C 217.71699 533.08957 218.10647 533.55073 218.5625 533.96875 C 222.84821 537.89732 234.65625 535.21875 234.65625 535.21875 C 238.47625 541.54026 243.80338 542.69649 250 540.9375 C 250.92151 541.86083 251.38913 542.3207 252.5 543.0625 C 252.64859 543.16905 252.78968 543.2767 252.9375 543.375 C 253.07837 543.4643 253.18156 543.52571 253.34375 543.625 C 253.38455 543.65 253.42795 543.6632 253.46875 543.6875 C 255.76213 545.07186 257.94252 545.47273 260.0625 545 C 263.72066 544.32777 266.91807 541.42905 268.9375 537.71875 C 275.148 541.77828 282.36718 538.37082 290 532 C 292.79354 529.66834 299.85575 526.81776 307.28125 524.5 C 308.20944 524.21028 309.13024 523.92707 310.0625 523.65625 C 316.58829 521.76049 323.03125 520.375 326.78125 520.21875 C 332.13839 519.99554 339.13991 518.91501 344.09375 517.625 C 345.08452 517.367 345.98415 517.08169 346.78125 516.8125 C 347.9769 516.40871 348.9378 516.02445 349.53125 515.625 C 349.72907 515.49185 349.88389 515.34879 350 515.21875 C 354.46428 510.21876 348.77272 503.55574 346.4375 497.375 C 344.04327 491.03805 343.09241 480.75933 342.71875 472.4375 C 342.74055 472.4445 342.75945 472.46145 342.78125 472.46875 C 344.07445 472.90349 345.36869 473.35082 346.65625 473.8125 C 346.80148 473.8646 346.94859 473.91637 347.09375 473.96875 C 347.37667 474.07082 347.65481 474.17812 347.9375 474.28125 C 348.50157 474.48707 349.06179 474.69664 349.625 474.90625 C 349.91648 475.01471 350.20872 475.10939 350.5 475.21875 C 352.50504 475.97167 354.50194 476.75067 356.5 477.53125 C 357.06193 477.75068 357.62587 477.96722 358.1875 478.1875 C 360.73029 479.18533 363.26961 480.17378 365.8125 481.15625 C 365.8251 481.16125 365.83125 481.1827 365.84375 481.1875 C 367.1105 481.67683 368.38771 482.14963 369.65625 482.625 C 369.66875 482.63 369.675 482.65155 369.6875 482.65625 C 370.95597 483.13141 372.22852 483.57681 373.5 484.03125 C 376.07838 484.95221 378.65167 485.83082 381.25 486.625 C 382.54407 487.02109 383.82411 487.3957 385.125 487.75 C 385.135 487.753 385.14675 487.747 385.15625 487.75 C 386.44743 488.1013 387.73211 488.44668 389.03125 488.75 C 389.04125 488.752 389.0527 488.748 389.0625 488.75 C 389.33392 488.8133 389.6032 488.87649 389.875 488.9375 C 392.22291 489.46452 394.58853 489.91455 396.96875 490.25 C 397.63319 490.3438 398.27018 490.42313 398.9375 490.5 C 398.9478 490.501 398.95855 490.499 398.96875 490.5 C 400.96066 490.72863 402.97963 490.87495 405 490.9375 C 420.71219 491.42393 445.13589 487.94933 451 480.59375 C 453.2299 477.7967 449.54095 477.09202 445 476.53125 C 444.2894 475.22291 443.4483 473.59811 442.84375 472.1875 C 442.04018 470.3125 439.385 468.38441 437.3125 468.40625 C 436.62167 468.41325 436.00142 468.64124 435.53125 469.15625 C 434.05391 470.77448 433.28182 471.17472 431.84375 472.8125 C 431.43353 472.59557 431.03868 472.37224 430.625 472.15625 C 429.93665 471.79684 429.22812 471.4512 428.53125 471.09375 C 428.64111 468.60352 428.74107 464.98661 428.40625 462.53125 C 428.13839 460.56696 427.01339 459.90179 425.71875 459.8125 C 424.42411 459.7232 422.95089 460.20535 421.96875 460.5625 C 420.29864 461.16981 420.70109 460.6621 415.8125 464.6875 C 414.61494 464.08432 413.41278 463.48904 412.21875 462.875 C 411.72405 462.62059 411.24335 462.35047 410.75 462.09375 C 410.7662 458.20001 410.42405 452.94263 410.53125 451.65625 C 410.67634 449.91518 407.86353 448.50939 405.5625 448.625 C 405.03149 448.6517 404.52902 448.76786 404.09375 448.96875 C 402.23275 449.82768 400.8888 451.28405 396.3125 453.84375 C 395.65267 453.41661 395.02156 453.00077 394.375 452.5625 C 393.04268 451.65938 391.73599 450.70561 390.46875 449.75 C 391.67565 445.59568 393.21875 439.7816 393.21875 437 C 393.21875 432.70312 391.70824 430.9558 389.25 430.96875 C 388.13262 430.97475 386.79464 431.33036 385.34375 432 C 383.231 432.97511 380.83879 434.36316 377.3125 436.65625 C 376.3352 435.2949 375.42036 433.90559 374.59375 432.4375 C 376.07766 428.77729 379.1161 421.28509 379.46875 420.03125 C 381.07589 414.31697 378.91374 411.25845 374.28125 411.28125 C 371.44173 411.29525 370.0296 412.731 366.78125 414.28125 C 366.36286 413.27405 365.95326 412.25869 365.53125 411.25 C 367.90154 408.29851 372.1791 402.85761 372.84375 400.9375 C 374.45088 396.29464 371.36346 393.70681 366.25 393.0625 C 364.23159 392.80818 362.99093 392.42303 361.375 392.375 C 360.38222 392.3455 359.19235 392.4623 357.65625 392.8125 C 357.30914 392.01734 356.94275 391.23269 356.59375 390.4375 C 356.58975 390.4285 356.59775 390.41495 356.59375 390.40625 C 358.2116 387.27637 361.90657 380.12411 363.03125 377 C 364.53794 372.81474 361.80695 369.73145 357.78125 369.65625 C 357.51287 369.65125 357.24777 369.6653 356.96875 369.6875 C 355.03196 369.84245 351.80779 370.37726 347.90625 371.03125 C 347.52404 370.19759 347.13391 369.36391 346.75 368.53125 C 349.06052 364.27668 353.4312 355.98847 353.5625 353.625 C 353.74107 350.41072 348.55804 349.51786 346.59375 349.875 C 345.00522 350.16382 343.10362 350.37856 338.53125 351.09375 C 338.42226 350.8666 338.32785 350.63325 338.21875 350.40625 C 337.90732 349.75819 337.5935 349.11559 337.28125 348.46875 C 338.99914 345.72598 341.34013 341.88984 343.21875 338.25 C 345.89733 333.06027 343.22175 327.70665 338.90625 327.5 C 338.61856 327.4862 338.33259 327.49805 338.03125 327.53125 C 335.3963 327.82402 331.97345 328.54208 327.71875 329.09375 C 327.08032 327.83181 326.45321 326.56691 325.8125 325.3125 C 327.93769 321.93768 331.67303 315.82286 332.6875 312.90625 C 334.11607 308.79911 330.58509 304.16262 324.09375 304.5 C 321.34981 304.64261 318.06872 305.1354 315.4375 305.5625 C 315.3716 305.44027 315.31586 305.30963 315.25 305.1875 C 315.01871 304.75861 314.79394 304.33383 314.5625 303.90625 C 317.60961 300.09384 323.89072 292.00998 324.46875 289.3125 C 325.54019 284.3125 320.89732 282.35268 316.96875 282.53125 C 314.18652 282.65771 307.66293 284.01498 303.90625 284.84375 C 303.58673 284.28779 303.28831 283.74035 302.96875 283.1875 C 304.46271 280.02894 308.55021 271.39383 310.1875 267.375 C 312.15179 262.55357 309.45535 260.23214 304.8125 259.875 C 304.23214 259.8304 303.69964 259.78125 303.15625 259.78125 C 300.01141 259.78125 296.94407 260.5672 290.75 262.0625 C 290.7246 262.0075 290.68145 261.96135 290.65625 261.90625 C 290.58615 261.75374 290.53737 261.59078 290.46875 261.4375 C 290.20606 260.84919 289.95971 260.25518 289.71875 259.65625 C 289.55492 259.25027 289.40368 258.84816 289.25 258.4375 C 289.1926 258.28441 289.14972 258.12246 289.09375 257.96875 C 292.3519 255.48693 297.51404 251.23857 299.65625 247.90625 C 302.87053 242.90625 298.7634 238.2634 293.40625 236.65625 C 291.26654 236.01434 289.65257 235.74577 287.84375 235.75 C 287.3556 235.751 286.84611 235.7746 286.3125 235.8125 C 286.42876 234.71017 286.55402 233.60326 286.75 232.5 C 286.759 232.4482 286.77185 232.39552 286.78125 232.34375 C 286.93476 231.49634 287.11053 230.65859 287.3125 229.8125 C 291.42842 228.55864 296.03811 225.65167 298.5625 223.96875 C 301.77679 221.82589 302.51339 219.5 300.90625 217 C 299.62647 215.00922 298.07167 212.78388 295.25 210.25 C 296.65799 206.95894 298.05398 203.47966 299.375 199.9375 C 301.59871 198.96396 304.14933 197.86855 305.53125 197.375 C 308.03125 196.48214 310.37053 192.8884 308.40625 190.03125 C 307.46174 188.65742 305.49956 187.60961 303.71875 186.90625 C 304.05219 185.76063 304.38429 184.61126 304.6875 183.46875 C 307.40871 181.63045 310.70411 179.39656 313.15625 177.6875 C 317.32313 174.78331 314.86207 172.70278 313.28125 171.25 C 311.20904 169.34563 309.98776 168.73551 307.65625 167.96875 C 307.80118 166.62268 307.90567 165.29764 307.96875 164 C 310.98227 161.33833 315.74107 156.98661 316.6875 155.09375 C 318.07646 152.31583 315.03046 150.0376 312 149.40625 C 311.24239 149.24841 310.16436 149.17401 308.96875 149.15625 C 307.56579 149.13545 306.06469 149.178 304.6875 149.25 C 304.6056 149.12534 304.52299 148.99827 304.4375 148.875 C 304.4244 148.8561 304.41935 148.8314 304.40625 148.8125 C 304.62181 148.37646 305.40019 146.77148 306.125 144.625 C 306.128 144.616 306.122 144.60305 306.125 144.59375 C 306.64181 143.0582 307.08538 141.37704 307.125 139.9375 C 307.12526 139.9268 307.12478 139.91685 307.125 139.90625 C 307.132 139.61705 307.12095 139.35926 307.09375 139.09375 C 307.03895 138.56315 306.91016 138.08435 306.6875 137.6875 C 306.53226 137.4108 306.38599 137.16519 306.25 136.96875 C 306.2155 136.92065 306.1594 136.85618 306.125 136.8125 C 306.116 136.8006 306.10295 136.79275 306.09375 136.78125 C 306.01305 136.68175 305.9276 136.57795 305.84375 136.5 C 305.66075 136.32549 305.45429 136.21578 305.21875 136.125 C 305.14995 136.0989 305.07579 136.0835 305 136.0625 C 304.9428 136.0467 304.9057 136.0133 304.84375 136 C 304.80985 135.993 304.75415 136.007 304.71875 136 C 303.83681 135.83844 302.47207 135.85296 299.90625 135.65625 C 296.79112 135.41743 293.7998 136.99679 291.84375 138.34375 C 292.70324 135.48348 293.94007 130.43875 293.84375 125.15625 C 293.84317 125.12475 293.84443 125.094 293.84375 125.0625 C 293.81945 123.91862 293.7324 122.76064 293.5625 121.625 C 293.32737 120.05336 292.46878 119.48325 291.28125 119.46875 z M 120.71875 267.71875 C 120.78195 268.57372 120.80585 269.3779 120.71875 270.03125 C 120.70335 270.14655 120.6872 270.2631 120.6875 270.375 C 120.6996 269.50123 120.71455 268.61264 120.71875 267.71875 z "
       inkscape:radius="5.2000785"
       transform="matrix(-0.13758637,0,0,0.13758637,153.90331,474.63651)" />
    <path
       id="path3275"
       style="fill:#217844"
       inkscape:connector-curvature="0"
       d="m 111.39325,495.15889 c 0.4935,-0.007 1.12649,0.0516 1.12649,0.0516 l -0.64063,2.29604 c 0,0 -1.35674,-1.14844 -1.54785,-1.53064 -0.1911,-0.3822 0.22799,-0.69567 0.64494,-0.78253 0.10424,-0.0217 0.25255,-0.0319 0.41705,-0.0344 z m 0.72662,2.41629 0.42567,2.64001 c 0.033,-0.008 0.0825,-0.022 0.0825,-0.022 l 0.56325,2.16272 c 0,0 -0.9803,-0.4404 -1.32427,-0.56325 -0.34396,-0.12284 -0.66582,-0.61729 -0.39556,-1.0104 0.20894,-0.3039 0.77694,-0.48568 1.02761,-0.55464 -0.0931,-0.0625 -1.13259,-0.76136 -1.68117,-1.14369 -0.57331,-0.39958 -0.2347,-0.68583 -0.0172,-0.88571 0.41273,-0.3793 0.57294,-0.38022 1.31998,-0.62343 z m 1.49282,5.71396 c 0,0 1.84269,3.07299 1.20388,3.04837 -0.6388,-0.0246 -1.5484,-0.59088 -1.99074,-0.88572 -0.44224,-0.29483 -0.54359,-0.61484 -0.32248,-0.95881 0.22112,-0.34396 0.49507,-0.73706 1.1093,-1.20388 z m 0.68793,3.78363 c 0.24886,5.5e-4 0.52761,0.0375 0.933,0.0989 l -0.71373,3.24181 c 0,0 -1.40228,-0.9803 -1.84448,-1.66824 -0.44225,-0.68793 0.12284,-1.32671 0.85991,-1.54784 0.2944,-0.0883 0.51646,-0.12527 0.76533,-0.12469 z m -2.10672,3.30634 c 0.52333,0 0.9889,0.15049 2.2787,0.45145 l -2.05526,3.06982 c 0.0331,0.008 0.11178,0.0258 0.11178,0.0258 l -1.59077,2.82052 c 0.0423,0.007 0.18918,0.0301 0.18918,0.0301 l -1.84021,2.94957 c 0,0 -0.96004,-1.47286 -1.15658,-2.03793 -0.19656,-0.56508 0.28926,-1.203 1.18239,-1.15657 0.50137,0.026 1.21047,0.14581 1.53931,0.20208 -0.15782,-0.1928 -1.49267,-1.83375 -1.59077,-2.29164 -0.14741,-0.68793 0.49137,-0.95757 1.0319,-0.933 0.45263,0.0206 1.66094,0.28818 2.05953,0.37837 -0.0529,-0.11176 -0.86482,-1.82137 -1.12649,-2.46363 -0.27026,-0.66335 0.10073,-0.98276 0.73952,-1.03189 0.0799,-0.006 0.15313,-0.0129 0.22788,-0.0129 z m -4.91872,9.31721 c 0.0396,-0.002 0.0789,-2.8e-4 0.12039,0.004 0.4646,0.0516 1.10376,0.19716 1.93914,0.27088 l -1.53491,3.0441 c 0.005,8.2e-4 0.008,0.003 0.0129,0.004 l -1.42319,2.67867 c 0,0 -1.10623,-1.96556 -1.1308,-2.40776 -0.0246,-0.44225 0.68855,-0.56508 0.95881,-0.51595 0.26572,0.0483 0.56167,0.0722 1.55211,0.23648 -0.0312,-0.0484 -0.70363,-1.09161 -1.08778,-1.83595 -0.36854,-0.71403 -4.1e-4,-1.45057 0.59334,-1.47905 z m -2.59694,5.80009 c 0.0369,-6.9e-4 0.0734,10e-4 0.11179,0.004 0.37062,0.0296 0.98277,0.14496 1.89181,0.29237 l -1.66823,2.90225 c 0,0 -0.86629,-1.65682 -1.0577,-2.18845 -0.2073,-0.57584 0.16845,-1.00006 0.72233,-1.01041 z m -0.49531,3.12596 c 0.22232,-0.007 0.49691,0.0338 0.97601,0.19347 l -1.32771,2.67744 c 0,0 -1.09831,-1.32694 -1.22537,-1.69397 -0.22111,-0.6388 0.20367,-0.99484 0.90722,-1.08349 0.2777,-0.035 0.4484,-0.088 0.67073,-0.0946 z m -1.77569,2.60121 c 0.51466,0.003 0.68793,0.34458 1.54785,0.61484 l -1.42746,2.7044 c 0,0 -0.7728,-1.89731 -0.83412,-2.11539 -0.22111,-0.78621 0.0764,-1.20702 0.71373,-1.20388 z m -2.05953,2.7088 c 0.15374,8.2e-4 0.33783,0.0498 0.53744,0.14188 0.39528,0.18244 0.85869,0.46681 1.69396,1.0319 l -2.20991,2.03793 c 0,0 -0.56754,-1.7673 -0.56754,-2.3819 0,-0.5912 0.20782,-0.8316 0.54605,-0.82981 z m -2.24431,2.42922 c 0.0731,0.004 0.1422,0.0197 0.20209,0.0473 0.31939,0.14741 0.51533,0.41829 1.6209,0.95881 0,0 -2.237014,1.37525 -2.433626,1.44892 -0.196556,0.0737 -0.04852,-1.74322 -0.07309,-2.03793 -0.01996,-0.23955 0.367039,-0.43297 0.683636,-0.41705 z m -2.77319,1.53932 c 0.178118,-0.0123 0.380825,0.054 0.515949,0.10319 0.27026,0.0983 0.07493,-0.0725 1.229677,0.88571 0.06092,0.24368 -1.782982,0.74807 -2.115389,0.933 0,0 -0.07371,-1.00732 0,-1.54784 0.03685,-0.27026 0.191644,-0.36179 0.369763,-0.37407 z m -1.595177,1.18239 c 0.09505,9.6e-4 0.18039,0.0323 0.245069,0.10319 0.281804,0.30867 0.369145,0.29483 0.786828,0.85991 l -2.235778,0.41706 c 0,0 0.295439,-0.51595 0.442863,-0.85992 0.11056,-0.25797 0.475884,-0.52325 0.761018,-0.52024 z" />
    <path
       id="path3236"
       sodipodi:nodetypes="csscc"
       style="fill:#5fd38d"
       inkscape:connector-curvature="0"
       d="m 114.0583,493.91373 c 0,0 -0.69002,-0.66912 -1.41728,-0.61336 -0.72732,0.0558 -0.76158,-0.0257 -0.93246,0.27881 -0.24508,0.43681 0.33568,1.5799 0.33568,1.5799 z" />
    <path
       id="path3213"
       sodipodi:nodetypes="csccscssssscc"
       style="fill:#2ca05a"
       inkscape:connector-curvature="0"
       d="m 118.15012,536.94112 c 0,0 -0.73215,1.69382 -0.20847,2.32796 1.01728,1.2318 5.55931,2.22367 6.70596,2.15419 l 6.29251,2.06435 c 0.13899,0.72966 0.4482,1.13222 -1.08062,1.09747 -1.52886,-0.0348 -2.57121,-0.59068 -2.57121,-0.59068 0,0 -0.48644,-0.34746 -0.8339,-0.13899 -0.34746,0.20848 -1.40599,0.17987 -2.57121,-0.24322 -2.05499,-0.74619 -4.72816,-0.92568 -7.12285,-1.14662 -0.94599,-0.0873 -2.50173,0.3822 -2.84914,-0.0695 -0.34746,-0.4517 -0.66036,-0.84397 -0.0467,-1.90997 0.43692,-0.75897 1.08903,-3.40609 1.08903,-3.40609 z" />
    <path
       id="path3172"
       sodipodi:nodetypes="scccccsccssss"
       style="fill:#217844"
       inkscape:connector-curvature="0"
       d="m 133.84597,513.42348 c 0.33365,0.005 0.59765,0.0645 0.59765,0.0645 l 1.77143,0.68794 c 0,0 -0.0452,1.32629 -0.32248,2.04659 0.4232,0.57489 0.32685,0.44309 0.61423,1.24319 -1.01005,-0.0644 -2.44987,-1.11377 -3.24126,-0.88202 -0.98564,0.32751 -1.50313,1.49776 -2.45509,1.91327 -1.12536,0.49125 -3.63751,0.58904 -3.63751,0.58904 l 0,-2.15846 c 0,0 1.58595,0.53904 2.35616,0.34397 1.24802,-0.31608 2.58016,-0.26663 2.87638,-2.43363 0.0708,-0.51746 0.16896,-0.93572 0.43426,-1.15228 0.26987,-0.22028 0.67245,-0.26712 1.0061,-0.26227 z" />
    <path
       id="path3211"
       sodipodi:nodetypes="csccscc"
       style="fill:#00aa00"
       inkscape:connector-curvature="0"
       d="m 137.93366,510.53692 c -0.66336,1.15475 -1.97244,2.41849 -2.60437,3.26767 -1.57247,2.11292 -1.27758,4.6313 -1.20388,6.26514 l -0.27026,0.63878 c -0.14741,-1.68295 -0.49138,-4.95063 1.15475,-7.06354 0.48155,-0.61777 2.03903,-3.181 2.03903,-3.181 z" />
    <path
       id="path3208"
       style="fill:#d40000"
       inkscape:connector-curvature="0"
       d="m 135.68963,507.4082 c 0.2429,0.006 0.54465,0.1087 0.84272,0.35257 0.63984,0.5235 0.62209,0.86528 0.73092,1.31136 0.17053,-0.55908 0.29227,-0.92386 0.64494,-1.13938 0.44224,-0.27026 1.22845,-0.44102 1.71983,0.19778 0.25111,0.32644 0.19532,0.95942 -0.19778,1.22968 -0.0628,0.0432 -0.14697,0.0904 -0.24078,0.14188 0.12588,-0.0414 0.24804,-0.0827 0.36546,-0.12039 0.68793,-0.22111 1.63865,-0.0366 1.89181,0.66644 0.22112,0.61423 -0.44347,0.76102 -1.40173,0.76102 -0.34843,0 -0.6634,-0.0407 -0.92441,-0.0903 0.86364,0.40497 1.53422,0.95069 1.61237,1.34147 0.0983,0.49137 0.31939,1.37586 -0.51595,1.03189 -0.3985,-0.16408 -0.92254,-0.57911 -1.35866,-0.9975 0.10726,0.36499 0.14345,0.66134 0.10749,0.87712 -0.0737,0.44224 -0.19656,0.78314 -0.68793,0.70942 -0.49138,-0.0737 -0.8735,-0.3583 -0.95882,-1.20388 -0.0123,-0.12178 -0.0177,-0.35637 -0.0215,-0.61485 -0.0252,0.32817 -0.53592,0.53889 -1.10929,0.51595 -0.61423,-0.0246 -1.08043,-0.78252 -0.93301,-1.12649 0.11368,-0.26524 0.38943,-0.5629 0.84701,-0.77392 -0.35585,0.009 -0.79977,0.0163 -1.16519,-0.0129 -0.61422,-0.0491 -1.678,-0.3251 -1.6725,-0.83842 0.004,-0.4089 0.22174,-0.83166 1.1308,-0.78253 0.50988,0.0276 1.05522,0.12376 1.6381,0.45145 -0.25475,-0.28036 -0.4259,-0.4631 -0.65783,-0.72233 -0.41767,-0.4668 -0.29299,-0.93608 -0.0473,-1.08349 0.0921,-0.0553 0.21542,-0.0855 0.36116,-0.0817 z m 1.47905,2.15846 -0.61054,0.30957 c 0,0 -0.082,-0.0897 -0.0903,-0.0989 l 0.086,0.53744 c 0.001,-4.2e-4 0.003,4.1e-4 0.004,0 l 0.73523,0.31817 c 1e-5,-5.5e-4 0,-0.0215 0,-0.0215 l 0.78837,0.077 c 0.0456,-0.31286 0.0458,-0.2019 0.25797,-0.23218 l -0.30527,-0.39985 c -0.0761,0.0332 -0.15049,0.0645 -0.15049,0.0645 l -0.71373,-0.55464 z m 0.12469,1.89608 c -0.009,0.12092 -0.0123,0.23464 0,0.32676 0.002,0.0159 0.004,0.0319 0.004,0.0473 -0.002,-0.12305 -0.004,-0.24815 -0.004,-0.37407 z" />
    <path
       id="path3238"
       sodipodi:nodetypes="csccsc"
       style="fill:#217844"
       inkscape:connector-curvature="0"
       d="m 112.10457,493.33174 c 0.007,0.0411 -0.0316,0.10614 0.14421,0.14289 0.21868,0.0457 0.36804,-0.23898 1.68351,0.51491 l -1.88769,1.1684 c 0,0 -0.582,-1.14099 -0.33692,-1.57784 0.1116,-0.19891 0.17074,-0.23306 0.39692,-0.2484 z" />
    <path
       id="path3188"
       sodipodi:nodetypes="ssssscssssccscscscsscssscccssssccssss"
       style="fill:#afe9af"
       inkscape:connector-curvature="0"
       d="m 115.85243,493.86833 c 1.2312,-0.002 2.36648,0.13804 3.7019,0.59334 0.97312,0.33178 2.02609,1.1056 3.00103,1.43172 0.56264,0.18821 1.33966,-0.21364 1.76716,0.19778 0.47733,0.45942 -0.21491,1.544 0.29666,1.96488 2.02651,1.6674 4.72733,4.1119 4.61768,4.12759 0,0 1.24824,0.27229 1.72836,0.70083 0.94407,0.84251 1.59187,2.01234 1.37586,3.25915 -0.11103,0.64068 -0.73539,1.03404 -1.13938,1.54358 -0.72875,0.91906 -1.09433,2.19038 -2.0638,2.85065 -0.9785,0.66638 -3.58577,0.44287 -3.58577,0.44287 0,0 1.37186,3.91116 2.20991,6.11832 0.53159,0.13799 1.2989,0.29057 1.76716,0.17199 0.60256,-0.15261 1.22561,-0.22168 1.74129,-0.49446 0.19754,1.01836 -0.13343,1.33038 -0.75243,1.64251 -0.57598,0.29036 -1.4104,0.40078 -2.11112,0.44286 4.25004,12.76045 -2.88148,18.38842 -7.85096,19.18091 -4.09305,0.65207 -7.31313,0.30285 -11.01117,0.89861 -0.12803,0.39351 -0.23023,0.8149 -0.21068,1.12649 0.0843,1.34371 0.45667,3.10161 1.59945,3.71056 2.91669,1.55418 8.0832,1.64677 8.0832,1.64677 0,0 1.47107,-1.25363 2.25724,-1.30277 0.78621,-0.0491 1.72354,0.98276 2.3131,1.71983 0.52453,0.65567 0.83474,1.72106 0.24507,2.26164 -0.58966,0.54052 -2.21432,0.17198 -2.21432,0.17198 -0.52558,0.86976 -1.25851,1.02883 -2.11112,0.78683 -0.97336,0.97528 -1.82852,0.67614 -2.60561,-0.44286 -0.85448,0.55853 -1.84779,0.0897 -2.89785,-0.78683 -0.76871,-0.6416 -3.88131,-1.57179 -5.06056,-1.6209 -1.17931,-0.0491 -2.93898,-0.40166 -3.19462,-0.68794 -0.61422,-0.68793 0.16886,-1.60466 0.49015,-2.45509 0.32941,-0.87188 0.46024,-2.28613 0.51166,-3.43113 l 7.66631,-28.00845 c 1.13304,-1.84614 1.10834,-4.48188 0.0438,-6.69647 -1.06827,-2.22243 -2.91008,-5.52877 -2.94214,-8.01867 -0.0158,-1.22606 0.53777,-2.85877 3.05703,-3.00544 0.44259,-0.0258 0.86657,-0.0422 1.27697,-0.043 z" />
    <path
       id="path3284"
       style="fill:#2ca05a"
       d="m 112.17062,494.91743 c 0.82086,0.62488 1.83155,0.74185 2.3003,1.56504 0.22786,0.40011 -0.0287,0.94022 0.12039,1.37586 0.33394,0.97582 1.6725,2.60561 1.6725,2.60561 0,0 0.37657,0.28847 0.19347,0.61485 -0.56508,1.00733 0.54175,2.08966 0.54175,2.08966 l 1.40201,0.90711 0.933,3.53858 -0.8593,2.15474 c -0.81889,2.73976 -0.0126,6.33255 0.23587,7.17541 0.2427,0.82312 -0.82975,1.51235 -1.36727,2.33897 -0.6741,1.03667 -0.19225,3.25157 -0.0946,4.48008 0.30342,0.31337 1.27804,1.12084 1.44892,1.59078 0.19656,0.54052 0.44102,2.01096 0.14619,2.50242 -0.29484,0.49137 -0.68732,1.1357 -1.10499,1.062 -0.41767,-0.0737 -0.49445,-0.42136 -0.49445,-0.42136 0,0 -0.32002,0.34335 -0.61485,0.41705 -0.29482,0.0737 -0.61508,0.0296 -0.85991,-0.12468 -0.1746,-0.11 -0.34397,-0.51166 -0.34397,-0.51166 0,0 -0.29115,0.0706 -0.61054,-0.15049 -0.24291,-0.16817 -0.18538,-0.92585 -0.44286,-1.30707 -0.42524,-0.62963 -1.21283,-1.29821 -1.72933,-1.4847 -0.72935,-0.26339 -2.07824,-0.64537 -1.78339,0.43566 0.29483,1.08104 0.96957,0.48942 1.81875,3.6331 0.70703,2.61758 -0.15005,2.68954 0.933,5.01337 0.28506,0.61158 1.42003,0.53581 2.08169,0.21918 0.01,0.87975 -1.26563,3.4691 -4.17135,3.98147 -0.78845,0.13903 -1.22486,0.20192 -1.9778,0.32248 -0.12803,0.39351 -0.23022,0.81489 -0.21067,1.12649 -0.028,0.76075 -1.21887,0.80118 -1.89608,0.37836 -0.28632,0.81626 -0.51166,1.58321 -0.51166,2.12832 0,1.17931 0.933,1.37587 0.933,1.37587 0,0 -0.39127,0.74014 -0.0473,1.18238 0.34397,0.44225 5.40453,1.66824 5.40453,1.66824 0,0 0.933,0.9803 1.96487,1.32427 0.60538,0.20087 1.96473,-0.0482 1.96473,-0.0482 0,0 -0.43794,0.73953 0.69223,1.0835 0.57388,0.22459 0.88931,0.16024 1.28558,-0.23218 0.25295,-0.25295 -0.002,-0.90337 -0.21068,-1.28558 0.38892,-0.001 0.50924,0.30647 0.76533,0.93731 0,0 0.45262,0.21033 0.76532,0.24507 0.31271,0.0347 0.83378,-0.45237 0.86852,-1.21679 0.0347,-0.7644 -1.31998,-1.31998 -1.31998,-1.31998 0,0 0.13797,-0.34098 0.30957,-0.31386 0.82783,0.13082 1.3286,1.31749 1.46185,1.66824 0.26784,0.70504 1.54139,0.96364 2.3819,-0.24938 -0.0171,0.27359 -0.11009,0.52264 -0.31386,0.70942 -0.58966,0.54053 -2.21432,0.17199 -2.21432,0.17199 -0.52558,0.86975 -1.25851,1.02883 -2.11112,0.78683 -0.15605,0.15635 -0.20688,0.21477 -0.46006,0.36976 -0.86311,0.52837 -1.70594,-0.005 -2.14553,-0.81261 -0.85448,0.55853 -1.84778,0.0897 -2.89784,-0.78683 -0.76871,-0.64161 -3.88131,-1.57179 -5.06056,-1.62091 -1.17931,-0.0491 -2.93899,-0.40165 -3.19462,-0.68793 -0.61423,-0.68793 0.16886,-1.60467 0.49015,-2.45509 0.32941,-0.87188 0.46024,-2.28614 0.51166,-3.43113 -3.37252,0.78043 -10.994119,2.24472 -14.897857,1.12218 -0.551748,-0.69207 1.513313,-0.45959 2.201383,-0.83842 3.156644,-1.73799 7.299374,-3.14151 8.646474,-6.48376 2.15406,-5.2807 3.95754,-8.97875 5.88512,-13.51387 1.41095,-3.31776 5.25388,-8.0499 5.86985,-11.0065 4.1e-4,-0.003 -4.1e-4,-0.006 0,-0.009 0.21988,-1.28941 0.0771,-2.66753 -0.55035,-3.97281 -1.06827,-2.22243 -2.3541,-5.52877 -2.38629,-8.01867 -0.008,-0.64549 0.14208,-1.40503 0.65353,-1.99927 z"
       sodipodi:nodetypes="csscsccccsscssscsscsasssscscccscscscccccsscsscsccscssssccsccccsscc"
       inkscape:connector-curvature="0" />
    <path
       id="path3375"
       style="fill:#217844"
       d="m 111.98075,495.69135 c 0.64665,1.7406 0.51732,3.785 1.39787,6.38483 0.60126,0.43973 1.30707,1.3372 1.30707,1.3372 1.32034,1.19274 2.75985,0.90309 4.16626,1.148 l 0,2.78186 4.03293,2.08525 3.68044,0.82982 0.22839,0.75122 c -0.6869,0.0132 -1.24257,-0.0301 -1.24257,-0.0301 0,0 0.35563,1.0083 0.81261,2.28737 -1.4104,0.0178 -3.32147,-0.26824 -3.89534,-0.50735 -0.8339,-0.34746 -2.26247,-1.67539 -3.0269,-1.81449 -0.76441,-0.13898 -1.90021,-1.27682 -2.49802,-1.87461 -0.21791,-0.21791 -0.77371,-1.17102 -1.40173,-2.32177 0.0243,0.1064 0.0465,0.21419 0.0602,0.32247 0.15202,1.20219 -1.05267,3.51451 -1.51042,4.35365 -1.18338,2.1696 -3.5939,6.96366 -4.49619,9.29877 -0.45877,1.18732 -0.83681,2.12998 -1.15658,3.3739 -1.70799,0.53248 -4.1884,6.27187 -4.39849,10.17712 0,0 -0.44852,-2.41601 -0.19778,-3.03543 2.08071,-5.14119 4.02054,-9.4226 5.23254,-11.86682 1.11657,-2.25174 3.77785,-6.45308 4.95311,-8.60768 0.34541,-0.63325 0.85842,-2.86303 0.71373,-4.0072 -0.21952,-1.25069 -2.00793,-4.46757 -2.74746,-7.4382 -0.38554,-1.54881 -0.16541,-2.67192 -0.0129,-3.62884 z"
       sodipodi:nodetypes="ccccccccccssscsssccssscsc"
       inkscape:connector-curvature="0" />
    <path
       id="path3161"
       sodipodi:nodetypes="cssscsscccc"
       style="fill:#0b2817"
       inkscape:connector-curvature="0"
       d="m 117.78689,501.22645 c -0.78621,0.61423 -0.93362,0.7125 -0.81078,1.79357 0.0506,0.44548 0.41767,0.76164 0.17198,0.98276 -0.24569,0.22111 -1.04565,0.0289 -1.59696,-0.3194 -2.32329,-1.46777 -1.9701,-4.926 -1.94093,-4.91376 0,0 -0.36129,2.59681 0.19655,3.70988 0.51014,1.01795 1.15475,1.54785 2.506,2.01468 1.35129,0.46682 2.70261,1.44961 2.70261,1.44961 l -1.20388,-2.97283 -0.44224,-0.3931 c 0.0246,-0.90904 0.63879,-1.1056 0.41766,-1.35129 z" />
    <path
       id="path3158"
       sodipodi:nodetypes="ccssccsscscscssscc"
       style="fill:#2ca05a"
       inkscape:connector-curvature="0"
       d="m 117.36313,502.18955 c 0,0 2.2161,2.08155 3.248,3.40829 -0.44225,-0.0246 -0.41461,0.0749 -0.70943,0.19778 -0.97914,0.40797 -0.33296,1.45099 0.16769,1.77143 0.15511,0.0993 0.29573,0.17945 0.42567,0.24507 0.74478,0.0888 0.93157,-0.50323 1.14799,-0.9846 0.0355,-0.21794 0.29225,-0.43468 0.53929,-0.0491 0.2766,0.43169 -0.0647,0.78753 -0.0215,1.13202 0.0547,0.4361 0.93117,-0.8636 0.93117,-0.8636 0,0 4.76943,1.96859 5.99794,1.87035 0.59125,-0.0473 1.2226,-0.3585 1.72409,-0.66644 -0.5048,0.82293 -0.89366,1.75395 -1.6769,2.28737 -0.9785,0.66637 -3.58578,0.44287 -3.58578,0.44287 -2.16423,-0.17986 -2.82492,-1.28671 -3.43965,-1.62091 -0.89751,-0.48795 -2.48619,-0.83757 -3.19462,-1.57371 -0.86454,-0.89835 -0.46639,-2.16933 -0.73953,-3.19462 -0.21223,-0.79657 -0.94161,-1.6381 -0.94161,-1.6381 -0.0367,-0.19146 -0.0449,-0.48026 0.12714,-0.7641 z" />
    <path
       id="path3136"
       sodipodi:nodetypes="sssss"
       style="fill:#000000"
       inkscape:connector-curvature="0"
       d="m 120.73537,497.95877 c -0.0375,0.39811 -0.38738,0.31513 -0.78621,0.34397 -0.38139,0.0276 -0.78332,-0.45298 -0.78621,-0.83534 -0.004,-0.51012 0.52816,-1.21072 1.0319,-1.13018 0.35472,0.0567 0.57421,1.26391 0.54052,1.62159 z" />
    <path
       id="path3140"
       d="m 124.7694,498.18716 c -0.109,0.11215 -0.25137,-0.17872 -0.65021,-0.14988 -0.38139,0.0276 -0.18769,-0.38523 -0.19058,-0.7676 -0.004,-0.51011 0.0308,-1.00224 0.53455,-0.9217 0.35473,0.0567 0.55661,1.58155 0.30624,1.83912 z"
       sodipodi:nodetypes="sssss"
       style="fill:#000000"
       inkscape:connector-curvature="0" />
    <path
       id="path3144"
       sodipodi:nodetypes="ccssscasc"
       style="fill:#000000"
       inkscape:connector-curvature="0"
       d="m 121.4233,507.71227 c 0.44224,0 0.66336,-0.29483 0.66336,-0.29483 0,0 0.13257,-0.81194 -0.22112,-0.93362 -0.85234,-0.29326 -1.08103,-0.24569 -1.59696,-0.41768 -0.26575,-0.0886 -0.51061,0.028 -0.58966,0.3931 -0.10798,0.49885 0.30902,0.68269 0.49138,1.00733 0,0 0.0618,-0.53874 0.27026,-0.6388 0.35292,-0.16943 0.98416,0.042 1.13018,0.31939 0.0907,0.17226 -0.14741,0.5651 -0.14741,0.5651 z" />
    <path
       id="path3156"
       sodipodi:nodetypes="sssss"
       style="fill:#2ca05a"
       inkscape:connector-curvature="0"
       d="m 124.19567,499.71025 c -0.51721,-0.40067 -1.16637,-0.55111 -0.60805,0.10423 1.42429,1.67182 2.93237,3.69984 3.78734,5.52465 0.20354,0.43441 0.58395,0.4939 0.45169,0.0869 -0.90173,-2.77525 -2.2776,-4.6672 -3.6309,-5.71575 z" />
    <path
       id="path3168"
       sodipodi:nodetypes="sccs"
       style="fill:#2ca05a"
       inkscape:connector-curvature="0"
       d="m 123.80217,496.35451 c -0.34716,0.44675 -0.20638,0.77962 -0.26059,1.26822 -0.33092,-0.46602 -0.6885,-0.94284 -1.2161,-1.23347 0.68424,-0.3703 1.80665,-0.45932 1.47672,-0.0347 z" />
    <path
       id="path3170"
       sodipodi:nodetypes="ccsc"
       style="fill:#2ca05a"
       inkscape:connector-curvature="0"
       d="m 119.30997,496.29948 c -0.3061,0.25258 -0.56138,0.90118 -0.52823,1.19159 -0.33304,-0.28457 -1.04607,-1.10618 -0.84763,-1.22845 0.27644,-0.17032 1.32834,-0.19298 1.37586,0.0368 z" />
    <path
       id="path3174"
       style="fill:#afe9af"
       inkscape:connector-curvature="0"
       d="m 133.82809,512.47689 c 0.4892,0.0341 1.00421,0.64993 1.0104,1.18238 0.004,0.33012 -0.28861,0.58107 -0.56754,0.66214 -0.55969,0.16267 -1.5246,-0.33403 -1.66824,-0.51595 -0.36853,-0.46682 0.61485,-1.27943 1.1308,-1.32856 0.0323,-0.003 0.062,-0.002 0.0946,0 z m 1.89607,1.54784 c 0.13604,0.002 0.26412,0.0166 0.36546,0.0258 0.27026,0.0246 1.32669,0.16988 1.20388,0.64063 -0.10112,0.38765 -0.37546,0.50716 -0.69653,0.53744 0.0816,0.0952 0.18715,0.24622 0.18058,0.39556 -0.006,0.13122 -0.49865,0.48106 -0.83411,0.51595 -0.009,8.2e-4 -0.0173,-8.3e-4 -0.0258,0 -0.009,0.0273 -0.016,0.0561 -0.0258,0.0817 0.36138,0.14586 1.40201,0.31129 1.38013,0.85132 -0.0115,0.28627 -0.47941,0.37288 -0.76532,0.39127 -0.18939,-0.0121 -0.39375,-0.0583 -0.60624,-0.12469 -0.004,-10e-4 -0.009,-0.003 -0.0129,-0.004 -0.33108,-0.18017 -0.69295,-0.38673 -0.86851,-0.52886 -0.20257,-0.16399 0.12459,-0.44304 0.45575,-0.66213 -0.31607,-0.0242 -0.62691,-0.10412 -0.90721,-0.24938 -0.31647,-0.164 -0.14865,-0.71495 0.31817,-0.91151 0.036,-0.0152 0.11646,-0.0184 0.21067,-0.0172 -0.0316,-0.031 -0.0616,-0.0638 -0.086,-0.10319 -0.11765,-0.19007 -0.059,-0.50823 0.0989,-0.66644 0.14625,-0.14653 0.3881,-0.17567 0.61484,-0.17198 z" />
    <path
       id="path3194"
       sodipodi:nodetypes="ssss"
       style="fill:#ffd42a"
       inkscape:connector-curvature="0"
       d="m 136.27575,510.37869 c -0.20847,-1.38989 1.14662,-1.11186 1.59834,-0.86865 0.4517,0.24323 1.25085,1.00763 0.8339,1.42457 -0.41696,0.41696 -2.342,0.0454 -2.43226,-0.55593 z" />
    <path
       id="path3215"
       sodipodi:nodetypes="cssscscasc"
       style="fill:#afe9af"
       inkscape:connector-curvature="0"
       d="m 119.61817,540.28722 c 1.75697,0.71146 4.22679,1.1838 5.03043,1.13509 0.94664,-0.0574 1.29579,-0.85995 3.09143,-1.0061 1.79564,-0.14616 3.40388,2.29287 3.54285,3.02263 0.0978,0.51327 0.10808,0.88778 -0.42567,1.05339 -0.71623,-0.14419 -1.67539,-0.17449 -2.16272,-0.34397 -1.13017,-0.39309 -2.26164,-1.0792 -2.26164,-1.0792 0,0 -0.71999,0.46279 -1.12956,0.49077 -1.391,0.095 -2.99292,-0.87295 -4.02743,-1.12955 -1.50162,-0.37246 -1.36759,-0.817 -1.65778,-2.14305 z" />
    <path
       id="path3222"
       sodipodi:nodetypes="csscc"
       style="fill:#5fd38d"
       inkscape:connector-curvature="0"
       d="m 119.05269,494.75989 c -0.22585,-1.37247 -0.66822,-2.04206 -1.2691,-3.01067 -0.40423,-0.65159 -0.9636,-0.59412 -1.18049,-0.0818 -0.3577,0.84501 0.0869,2.41478 0.0869,2.41478 0.52037,0.23355 1.39857,0.80207 2.36277,0.67754 z" />
    <path
       id="path3229"
       sodipodi:nodetypes="cascc"
       style="fill:#5fd38d"
       inkscape:connector-curvature="0"
       d="m 116.96825,493.92474 c 0,0 -1.03694,-1.80156 -1.89786,-2.29659 -0.45669,-0.2626 -1.4558,-0.94921 -1.55941,-0.25725 -0.18701,1.24999 0.34514,2.63079 0.34514,2.63079 0.94436,-0.11175 2.61359,0.37955 3.11206,-0.0769 z" />
    <path
       id="path3224"
       sodipodi:nodetypes="scccs"
       style="fill:#2ca05a"
       inkscape:connector-curvature="0"
       d="m 117.00402,491.47433 c 0.57528,0.21877 1.64733,2.22917 1.71557,3.30207 -0.82989,-0.0212 -1.57014,-0.48609 -2.0294,-0.69223 0,0 -0.44369,-1.57137 -0.086,-2.41629 0.0618,-0.19687 0.26145,-0.24611 0.39985,-0.19347 z" />
    <path
       id="path3231"
       style="fill:#2ca05a"
       inkscape:connector-curvature="0"
       d="m 113.71984,491.31885 c 0.79232,-0.004 1.32722,0.88902 1.87461,1.46186 0.33549,0.35109 0.79302,1.07499 0.94162,1.31567 -0.7139,0.10797 -1.92608,-0.18365 -2.67867,-0.0946 0,0 -0.52375,-1.36861 -0.34397,-2.61414 0.0713,-0.0405 0.13984,-0.0684 0.20638,-0.0688 z" />
    <path
       id="path4163"
       style="fill:#217844"
       sodipodi:type="inkscape:offset"
       d="m 261.56445,294.13281 c -1.72433,-0.0526 -3.21287,0.54138 -4.24023,1.61133 -1.02736,1.06995 -1.60305,2.52562 -1.89453,4.16797 -0.58297,3.2847 -0.0687,7.43994 1.01953,11.64062 a 1.0859485,1.0859485 0 0 0 0.45508,0.63672 c 0,0 2.26476,1.4862 4.74804,3.625 2.48328,2.13881 5.12741,4.98771 5.88086,7.24805 0.35597,1.06789 0.71643,3.8253 0.89258,7.18555 0.17615,3.36024 0.20963,7.39843 0.0762,11.36328 -0.13345,3.96485 -0.43554,7.86149 -0.91601,10.92187 -0.24024,1.53019 -0.52704,2.85212 -0.84375,3.84375 -0.31672,0.99163 -0.71484,1.64102 -0.875,1.78516 -3.47037,3.12333 -11.3642,8.81403 -11.60938,17.36914 -0.14481,5.053 0.40668,9.01978 1.64453,11.93359 1.23786,2.91382 3.29097,4.81185 5.88086,5.26172 0.98706,0.17146 1.78852,0.18618 2.51368,-0.0781 0.72515,-0.2643 1.29464,-0.94289 1.45312,-1.62696 0.0942,-0.40667 -0.0111,-0.79331 -0.0527,-1.18554 1.94818,2.03439 4.21384,3.55348 6.82421,3.95508 1.45669,0.2241 2.70776,-0.33548 3.39454,-1.16993 0.68677,-0.83445 0.92335,-1.80197 1.05859,-2.55273 0.11597,-0.6438 0.0685,-1.24561 -0.0449,-1.81445 0.0196,0.007 0.037,0.0241 0.0566,0.0312 1.65322,0.59864 3.40478,0.83607 4.9414,0.0586 1.43292,-0.72501 1.97449,-2.26098 2.09766,-3.68555 0.12317,-1.42456 -0.11844,-2.88647 -0.49219,-4.05273 -0.75653,-2.36075 -3.09364,-3.52576 -4.98047,-4.81445 -0.94341,-0.64435 -1.80474,-1.30088 -2.40039,-2.00586 -0.59565,-0.70499 -0.9378,-1.41637 -0.97265,-2.35743 -0.0611,-1.65034 0.55998,-4.85386 1.37109,-8.33203 0.81111,-3.47817 1.78779,-7.28979 2.36133,-10.53125 0.46498,-2.62792 0.67955,-7.84529 0.57812,-13.80664 -0.10142,-5.96135 -0.53205,-12.59069 -1.45117,-17.82031 -0.68269,-3.88441 -1.33267,-8.78371 -2.44531,-13.16602 -1.11264,-4.3823 -2.60825,-8.33854 -5.53125,-10.24414 -3.44453,-2.2456 -6.19858,-3.32438 -8.49805,-3.39453 z"
       inkscape:original="M 261.53125 295.21875 C 255.6158 295.0383 255.3716 303.06563 257.5 311.28125 C 257.5 311.28125 266.77678 317.36161 268.5625 322.71875 C 270.34821 328.07589 270.16518 355.75446 266.59375 358.96875 C 263.02232 362.18303 255.56976 367.67619 255.34375 375.5625 C 255.05971 385.47378 257.57383 390.89284 261.96875 391.65625 C 269.03815 392.88424 260.1875 382.90179 261.4375 380.9375 C 263.66873 386.61783 267.75319 391.95962 272.6875 392.71875 C 275.00893 393.07589 275.66561 391.21086 275.90625 389.875 C 276.74969 385.19293 269.83035 384.87053 267.6875 380.40625 C 267.6875 380.40625 276.85319 389.6945 281.4375 387.375 C 283.37592 386.39423 283.16297 383.00628 282.5 380.9375 C 281.36966 377.4103 274.27232 376.29018 274.09375 371.46875 C 273.95012 367.59093 276.71981 358.72719 277.84375 352.375 C 278.70364 347.51517 278.7726 331.38861 276.96875 321.125 C 275.5905 313.28301 274.37287 301.63466 269.46875 298.4375 C 266.11698 296.25237 263.50307 295.2789 261.53125 295.21875 z "
       transform="matrix(-0.13758637,0,0,0.13758637,153.62411,474.74056)"
       inkscape:radius="1.0858399" />
    <path
       id="path3302"
       sodipodi:nodetypes="csssscsscssssasc"
       style="fill:#afe9af"
       inkscape:connector-curvature="0"
       d="m 118.47482,517.46577 c 0,0 -1.27758,0.83534 -1.52321,1.57247 -0.24569,0.73707 -0.22112,4.5453 0.27026,4.98751 0.49137,0.44224 1.51675,1.19986 1.54784,2.28489 0.0391,1.36366 -0.30437,2.10618 -0.90906,2.21116 -0.97265,0.16895 0.24569,-1.20389 0.0737,-1.47411 -0.30698,0.78154 -0.86895,1.51717 -1.54785,1.6216 -0.31939,0.0491 -0.40912,-0.20931 -0.44224,-0.39311 -0.11605,-0.6442 0.83534,-0.68794 1.13017,-1.30216 0,0 -1.26107,1.27732 -1.89181,0.95819 -0.2667,-0.13494 -0.23863,-0.59985 -0.14741,-0.88449 0.15552,-0.48529 1.13018,-0.63878 1.15474,-1.30216 0.0198,-0.53353 -0.3613,-1.75491 -0.51595,-2.62886 -0.11831,-0.66864 -0.12534,-2.88739 0.12284,-4.29957 0.18962,-1.07896 0.35716,-2.68032 1.0319,-3.12032 1.84462,-1.20258 2.03655,0.26182 1.64608,1.76894 z" />
    <path
       id="path3380"
       style="fill:#217844"
       d="m 104.5731,536.35225 c 0.40863,1.46667 1.12408,2.60864 2.16698,3.28969 -2.84666,0.95622 -5.58325,2.44904 -8.56062,2.54122 -2.157356,0.066 -5.507584,-0.40726 -6.324847,-1.41439 0.656287,0.12796 1.37036,0.21464 2.399506,0.17061 4.287191,-0.17886 7.294831,-2.56048 10.318981,-4.58713 z"
       inkscape:connector-curvature="0" />
  </g>
  <metadata
     id="metadata5522">
    <rdf:RDF>
      <cc:Work>
        <dc:format>image/svg+xml</dc:format>
        <dc:type
           rdf:resource="http://purl.org/dc/dcmitype/StillImage" />
        <cc:license
           rdf:resource="http://creativecommons.org/publicdomain/zero/1.0/" />
        <dc:publisher>
          <cc:Agent
             rdf:about="http://openclipart.org/">
            <dc:title>Openclipart</dc:title>
          </cc:Agent>
        </dc:publisher>
        <dc:title>dragon with flower</dc:title>
        <dc:date>2011-05-15T16:21:37</dc:date>
        <dc:description />
        <dc:source>https://openclipart.org/detail/138805/dragon-with-flower-by-tzunghaor</dc:source>
        <dc:creator>
          <cc:Agent>
            <dc:title>tzunghaor</dc:title>
          </cc:Agent>
        </dc:creator>
        <dc:subject>
          <rdf:Bag>
            <rdf:li>cartoon</rdf:li>
            <rdf:li>dragon</rdf:li>
            <rdf:li>fairy tale</rdf:li>
            <rdf:li>flower</rdf:li>
            <rdf:li>tale</rdf:li>
          </rdf:Bag>
        </dc:subject>
      </cc:Work>
      <cc:License
         rdf:about="http://creativecommons.org/publicdomain/zero/1.0/">
        <cc:permits
           rdf:resource="http://creativecommons.org/ns#Reproduction" />
        <cc:permits
           rdf:resource="http://creativecommons.org/ns#Distribution" />
        <cc:permits
           rdf:resource="http://creativecommons.org/ns#DerivativeWorks" />
      </cc:License>
    </rdf:RDF>
  </metadata>
</svg>
