<?xml version="1.0" encoding="UTF-8" standalone="no"?>
<svg
   xmlns:dc="http://purl.org/dc/elements/1.1/"
   xmlns:cc="http://creativecommons.org/ns#"
   xmlns:rdf="http://www.w3.org/1999/02/22-rdf-syntax-ns#"
   xmlns:svg="http://www.w3.org/2000/svg"
   xmlns="http://www.w3.org/2000/svg"
   xmlns:sodipodi="http://sodipodi.sourceforge.net/DTD/sodipodi-0.dtd"
   xmlns:inkscape="http://www.inkscape.org/namespaces/inkscape"
   id="Dragon"
   version="1.0"
   xml:space="preserve"
   viewBox="6.37 18.536 60.000002 59.999998"
   enable-background="new 6.37 18.536 464.873 332.941"
   y="0px"
   x="0px"
   inkscape:version="0.91 r13725"
   sodipodi:docname="dragon.svg"
   width="60"
   height="60"><defs
     id="defs4205" /><sodipodi:namedview
     pagecolor="#ffffff"
     bordercolor="#666666"
     borderopacity="1"
     objecttolerance="10"
     gridtolerance="10"
     guidetolerance="10"
     inkscape:pageopacity="0"
     inkscape:pageshadow="2"
     inkscape:window-width="2048"
     inkscape:window-height="1093"
     id="namedview4203"
     showgrid="false"
     inkscape:zoom="2.6971745"
     inkscape:cx="211.67402"
     inkscape:cy="166.4705"
     inkscape:window-x="0"
     inkscape:window-y="0"
     inkscape:window-maximized="1"
     inkscape:current-layer="Dragon" /><path
     id="Body"
     d="m 58.87282,32.600531 c -0.0225,-0.0302 -0.50001,-1.51499 -1.53268,-2.64007 -1.08184,-1.17852 -2.72267,-1.99474 -2.82438,-1.80062 -0.12816,0.24471 1.12624,0.4276 2.17401,2.01745 0.43444,0.65915 0.70691,1.49254 0.73465,2.22835 0,0 -0.0964,0.3974 -0.16262,0.4156 -0.0662,0.0181 -0.20173,-0.002 -0.24084,-0.0724 -0.0391,-0.0699 0.44567,-1.00569 -1.37909,-2.40891 -1.59178,-1.22395 -3.98676,-1.62896 -4.0349,-1.55217 -0.0267,0.0426 1.19968,0.69993 2.14394,1.40167 0.75956,0.56454 1.2859,1.19556 1.21646,1.2708 -0.15579,0.16856 -6.88936,-1.96182 -6.98281,-1.84592 -0.0934,0.1159 2.19505,0.92141 2.37575,2.37574 0.10325,0.8312 -1.15335,0.77389 -2.9359,0.89431 -1.78268,0.12055 -3.38905,0.238 -3.39357,0.32822 -0.005,0.0904 2.16201,0.47587 2.51733,1.30681 0.35532,0.83106 0.0662,1.55978 -0.54802,1.75248 -0.61423,0.19269 -3.64345,0.55705 -3.67055,0.47884 -0.0271,-0.0782 1.05396,-0.75879 1.08391,-0.89444 0.0301,-0.13552 -1.35495,-0.88515 -2.03256,-1.16522 -0.67747,-0.28008 -1.65606,-0.59616 -1.67116,-0.73169 -0.0151,-0.13552 0.35222,-0.50594 0.87624,-0.87623 0.52388,-0.3703 1.14728,-0.53292 1.12921,-0.70458 -0.0181,-0.17166 -2.51424,-0.64741 -5.71808,-1.12018 -1.35495,-0.21683 -2.77314,-0.6052 -4.65223,-0.83107 -1.87897,-0.22573 -3.98367,-0.50581 -5.56449,-0.31608 -1.58082,0.18973 -3.80297,0.61423 -5.59146,1.54468 -1.78849,0.93045 -4.11931,2.83651 -4.44456,3.17067 -0.32513,0.33415 -0.71362,0.61436 -0.60507,0.77698 0.10841,0.16263 3.25198,-0.0903 4.84183,1.39109 1.58986,1.48144 1.99642,2.032429 2.11387,3.098397 0.11732,1.065968 0.009,1.797652 -0.22587,2.348641 -0.2349,0.551118 -0.66857,1.273766 -0.56015,1.427356 0.10842,0.153591 2.71893,-0.533048 3.36931,0.641466 0.65037,1.174255 0.26213,2.312501 0.0724,2.818316 -0.18973,0.505945 -0.64146,0.962069 -0.56015,1.084038 0.0813,0.121839 1.61683,-0.259039 2.86375,0.469676 1.24653,0.728715 1.92091,1.342947 1.93317,1.481565 0.0121,0.138619 -0.98143,0.319184 -1.48737,0.385267 -0.50595,0.06608 -1.22266,0.138489 -1.57192,0.138489 -0.34925,0 -1.15618,-0.246906 -1.22859,-0.114483 -0.0725,0.132294 1.18045,0.861138 1.32488,1.806686 0.14455,0.945549 0.18056,1.342818 -0.0782,1.848763 -0.25878,0.505944 -0.56609,1.270798 -1.34888,1.216589 -0.78292,-0.05421 -1.46943,-0.204959 -1.74641,-0.234902 -0.27698,-0.02994 -0.60223,-0.2229 -0.72278,-0.156559 -0.12055,0.06634 -0.0841,0.07809 -0.0241,0.162625 0.0603,0.08415 1.09616,0.602228 1.37908,1.024021 0.28305,0.421534 0.68651,1.27054 0.62649,1.649869 -0.0603,0.379329 -0.47574,0.776986 -1.15024,0.44567 -0.67451,-0.331316 -0.80693,-0.58403 -0.63824,0.301114 0.16843,0.885145 -0.17476,1.349013 -0.99976,1.162253 -0.82526,-0.186503 -1.78268,-0.433538 -2.49939,-1.69827 -0.71671,-1.264474 -0.86114,-2.258164 -0.93935,-3.402347 -0.0782,-1.144183 0.34331,-2.559407 0.95161,-3.950496 0.60817,-1.391089 0.91535,-3.60124 0.93935,-4.263743 0.0243,-0.662503 0.0301,-2.613616 -0.52982,-3.812007 -0.56002,-1.198521 -1.4755,-2.583672 -2.3125,-3.264116 -0.837,-0.680444 -2.5052,-1.571783 -2.64369,-1.746412 -0.13836,-0.174628 -0.60829,-0.728716 -0.40334,-1.282676 0.20471,-0.55408 0.49369,-0.57809 0.68032,-0.78886 0.1865,-0.21076 0.25555,-0.33609 0.25891,-0.43353 0.003,-0.0976 -0.75272,-0.57216 -1.39703,-0.76486 -0.64456,-0.1927 -2.5776,-0.35532 -3.4568096,-0.13242 -0.87921,0.22277 -2.54753,0.35532 -2.88466,0.65644 -0.33725,0.30111 -0.57228,1.11411 0,2.1198 0.57203,1.005694 0.9995,2.198019 1.17426,2.505199 0.17475,0.307181 0.83093,1.475499 1.06003,1.752478 0.22883,0.276979 0.7045796,0.764854 0.7887296,0.782794 0.0841,0.0182 0.39146,0.120549 0.45174,-0.150492 0.0603,-0.271042 0.41546,-1.541711 0.68638,-1.969312 0.2713,-0.427471 0.89134,-0.957551 1.1203,-1.035766 0.22897,-0.07822 1.45137,0.77092 1.66226,1.083909 0.21077,0.313246 1.0417,2.101734 1.16212,2.475126 0.12055,0.373521 0.46968,2.143939 0.37353,2.848519 -0.0963,0.704579 -0.6203,2.366838 -0.87921,3.017209 -0.25904,0.650371 -1.30681,2.649626 -1.46956,3.089359 -0.16276,0.439732 -0.89728,2.812508 -0.90335,3.077484 -0.006,0.265104 -0.26497,2.541338 -0.0781,3.3604 0.18689,0.819062 0.69851,2.583672 0.8672,2.920796 0.16856,0.337254 1.39096,2.354707 1.72834,2.758172 0.33739,0.403465 1.49344,1.62625 2.38504,2.107671 0.89108,0.48168 2.16188,1.024021 2.7099,1.228722 0.54802,0.204701 4.15533,0.451736 5.12514,0.40966 0.96956,-0.04233 3.6974,-0.204959 4.51659,-0.349385 0.81919,-0.144427 1.53564,-0.180437 1.58378,-0.114483 0.0483,0.06634 0.0299,1.005823 0.65644,1.31894 0.62649,0.313118 1.77649,0.596163 2.31857,0.788731 0.54195,0.192827 2.14988,0.427472 2.60768,0.518077 0.45767,0.09022 2.48726,0.512011 2.77017,0.614361 0.28292,0.102351 1.53423,0.259942 1.59592,0.252843 0.0618,-0.0068 0.34926,0.295178 0.59616,0.385396 0.24691,0.09022 0.80693,0.06027 0.86721,-0.07241 0.0601,-0.132294 0.13397,-0.132294 0.16107,-0.127777 0.0271,0.0045 0.14559,0.174757 0.18522,0.17166 0.0395,-0.0035 0.0914,-0.09499 0.14455,-0.09951 0.0531,-0.0045 0.35223,0.275559 0.41108,0.302534 0.0587,0.02723 0.0825,0.01587 0.11745,0 0.035,-0.01562 0.0621,-0.170111 0.0678,-0.194118 0.006,-0.02375 -0.0813,-0.329767 -0.13552,-0.408111 -0.0542,-0.07809 0.12042,-0.156559 0.0422,-0.240711 -0.0782,-0.08415 0.0361,-0.800863 -0.0301,-1.31894 -0.0662,-0.518077 -0.63836,-0.939224 -0.88527,-1.011889 -0.2469,-0.07215 -0.77686,-0.204701 -0.83713,-0.234644 -0.0602,-0.02994 -0.57809,-0.283045 -0.68044,-0.373392 -0.10235,-0.09048 -0.825,-0.34332 -0.91535,-0.373651 -0.0904,-0.02994 -0.49988,-0.186502 -0.59023,-0.222899 -0.0903,-0.03601 -0.27697,-0.08415 -0.2469,-0.295177 0.0301,-0.210768 0.17734,-0.500395 0.22883,-0.529693 0.0515,-0.02956 1.6802,-0.349386 2.34258,-0.548021 0.6625,-0.198893 1.42129,-0.53008 1.56585,-0.620427 0.14455,-0.09022 0.30705,-0.228836 0.37932,-0.180694 0.0723,0.04814 -0.0241,0.301243 0.0662,0.415726 0.0903,0.114483 1.16225,1.138117 1.53564,1.553585 0.37339,0.415726 0.80099,1.168447 1.16832,1.632187 0.36733,0.46361 0.56609,1.01163 1.16832,1.168447 0.60223,0.156559 1.85496,0.02994 2.55953,0.03601 0.70458,0.0061 1.27674,-0.08441 1.78862,0.0061 0.51188,0.09022 1.25867,0.246777 1.36708,0.228579 0.10842,-0.0182 0.19941,-0.0595 0.24084,-0.05421 0.0414,0.0053 0.14985,0.07305 0.19722,0.08648 0.0474,0.01355 0.24613,0.05188 0.28459,0.03175 0.0383,-0.02039 0.19644,0.0023 0.23258,0.02013 0.0361,0.0182 0.16598,0.06247 0.18741,0.05214 0.0215,-0.01058 0.0956,-0.08518 0.16404,-0.08518 0.0684,0 0.29815,0.04517 0.34022,0.03601 0.0422,-0.0088 0.31622,0.0061 0.49382,0.0061 0.17759,0 0.36139,0.009 0.45173,0.06324 0.0903,0.05421 0.25285,0.08751 0.32525,0.08144 0.0724,-0.0063 0.15062,0.06028 0.17166,0.06608 0.0212,0.0061 0.0603,-0.07241 0.0633,-0.108417 0.003,-0.03601 -0.12055,-0.252843 -0.18367,-0.373392 -0.0631,-0.120549 -0.033,-0.132294 -0.17166,-0.244067 -0.13862,-0.111385 -0.15952,-0.126357 -0.2229,-0.177467 -0.0632,-0.05137 -0.11435,-0.08441 -0.10841,-0.09654 0.006,-0.01187 0.0406,-0.0063 0.0813,0.01213 0.0407,0.01872 0.31015,0.123518 0.38243,0.168692 0.0723,0.04543 0.21683,0.153461 0.28304,0.213735 0.0662,0.06028 0.15966,0.147783 0.18069,0.123518 0.0212,-0.02426 0.058,-0.185986 0.0542,-0.2229 -0.004,-0.03704 -0.17166,-0.541954 -0.20173,-0.593452 -0.0301,-0.05111 -0.0693,-0.13836 -0.13255,-0.195666 -0.0632,-0.05718 0.0181,-0.09048 0.0693,-0.04814 0.0511,0.04208 0.19566,0.09357 0.20767,0.129325 0.0121,0.03627 0.0512,-0.09022 0.0241,-0.144426 -0.0271,-0.05421 -0.0933,-0.13565 -0.13255,-0.192569 -0.0391,-0.05718 -0.12945,-0.141716 -0.17166,-0.168691 -0.0422,-0.02723 0.10842,-0.05421 0.16559,-0.03627 0.0572,0.0182 0.15359,-0.0088 0.11746,-0.06027 -0.0361,-0.05098 -0.31312,-0.352225 -0.39147,-0.391462 -0.0783,-0.03911 -0.46374,-0.246519 -0.50581,-0.258909 -0.0421,-0.01213 -0.13849,-0.01794 -0.17166,-0.02994 -0.033,-0.01213 -0.3854,-0.252843 -0.56002,-0.298275 -0.17476,-0.04517 -0.44271,-0.03911 -0.51189,-0.0151 -0.0693,0.02439 -0.27401,0.03627 -0.33118,2.59e-4 -0.0572,-0.03601 -0.17166,-0.244067 -0.24394,-0.261878 -0.0723,-0.0182 -0.68651,-0.162625 -0.89431,-0.201604 -0.20767,-0.03936 -0.89728,-0.195924 -1.06287,-0.201603 -0.16559,-0.0061 -0.84913,0.0088 -0.91238,0.01794 -0.0632,0.009 -0.35532,0.01846 -0.37636,0.0151 -0.0212,-0.003 -0.15062,-0.02994 -0.16559,-0.04517 -0.0151,-0.0151 0.50581,-0.09628 1.00866,-0.138619 0.50285,-0.04208 1.14728,-0.117193 1.58985,-0.135392 0.44258,-0.0182 1.19543,0.0182 1.45137,0.126358 0.25594,0.108416 0.56015,0.216833 0.62636,0.210767 0.0663,-0.0061 0.1656,0.06027 0.23787,0.07538 0.0723,0.0151 0.24691,0.01213 0.33119,-0.0088 0.0843,-0.02117 0.21683,-0.09357 0.27401,-0.09048 0.0572,0.0031 0.32215,-0.003 0.43664,0.09048 0.11435,0.09332 0.20173,0.117194 0.24987,0.141458 0.0483,0.02426 0.1754,0.01742 0.17992,-0.0076 0.005,-0.02465 -0.0361,-0.180694 -0.0654,-0.230385 -0.0293,-0.04969 -0.16262,-0.358937 -0.19192,-0.39727 -0.0294,-0.03859 -0.07,-0.171659 -0.0904,-0.196569 -0.0204,-0.02465 -0.052,-0.139909 -0.0768,-0.185083 -0.0248,-0.04543 -0.0629,-0.125583 -0.0542,-0.144685 0.009,-0.0191 0.19644,0.05188 0.21451,0.04737 0.0181,-0.0045 0.12429,0.08596 0.16262,0.103899 0.0383,0.0182 0.14985,0.0111 0.15953,-0.01032 0.01,-0.02142 -0.0918,-0.235419 -0.11435,-0.264975 -0.0226,-0.02969 -0.17476,-0.130875 -0.1927,-0.150751 -0.0181,-0.01988 -0.13707,-0.154236 -0.14456,-0.180437 -0.007,-0.02646 -0.0271,-0.102608 -0.012,-0.120549 0.0151,-0.0182 0.22058,-0.07383 0.22884,-0.108416 0.008,-0.03485 -0.33119,-0.48168 -0.6323,-0.650371 -0.30112,-0.16882 -0.3974,-0.216962 -0.42748,-0.265105 -0.0301,-0.04827 -0.0301,-0.216962 -0.15655,-0.282915 -0.12649,-0.06634 -0.34332,-0.120679 -0.40954,-0.174758 -0.0662,-0.05434 -0.0505,-0.100801 -0.12648,-0.144426 -0.076,-0.04375 -1.4453,-0.114612 -2.29443,-0.03614 -0.84914,0.07822 -1.4453,0.04814 -1.91498,-0.373392 -0.4698,-0.421793 -0.8672,-1.487503 -0.59616,-2.137874 0.27104,-0.65037 -0.14456,-0.331187 0.53589,-0.764853 0.68057,-0.433538 1.24666,-1.662131 1.2828,-1.951113 0.0361,-0.289111 0.17463,0.0182 0.53589,-0.373521 0.36126,-0.39172 1.14418,-2.854456 1.2526,-3.306192 0.10841,-0.451607 -0.012,-0.764854 -0.0601,-0.836873 -0.0483,-0.07254 0.16779,-0.298791 0.21684,-0.554087 0.0489,-0.255424 -0.0301,-1.927235 -0.15656,-2.421047 -0.12636,-0.493812 -0.74679,-1.909037 -0.88528,-2.095797 -0.13849,-0.186632 -0.21412,-0.21038 -0.2349,-0.246777 -0.0206,-0.03653 0.0542,-0.361389 -0.0481,-1.126242 -0.10235,-0.764854 -0.60223,-1.626121 -0.66844,-1.740475 -0.0662,-0.114354 -0.0843,-0.168562 -0.0904,-0.22277 -0.019,-0.170757 0.30292,-0.430053 0.34926,-0.638368 0.0723,-0.32525 0.0542,-0.415597 0.0481,-0.493812 -0.006,-0.07822 0.0843,-0.263427 0.21077,-0.32525 0.12648,-0.06182 0.56609,0.355323 1.36708,0.572156 0.80099,0.216833 1.42503,0.09486 1.60198,0.09641 0.17683,0.0015 2.44493,1.011631 3.41461,1.632058 0.96956,0.620298 1.77055,1.138117 1.91511,1.210524 0.14455,0.07228 0.60222,0.819062 0.74071,0.879207 0.13849,0.06027 0.21077,0.144556 0.1807,0.2229 -0.0301,0.07821 -0.0723,0.240839 -0.10842,0.30718 -0.0361,0.06621 -0.12055,0.110611 -0.0904,0.180565 0.0301,0.07008 0.14456,0.05421 0.17476,0.04221 0.0301,-0.01213 0.16856,-0.13849 0.21077,-0.150622 0.0422,-0.012 0.25297,-0.09035 0.28911,-0.150493 0.0361,-0.06027 0.0964,-0.0422 0.18069,-0.126486 0.0843,-0.08428 0.84307,0.126486 1.10805,0.06634 0.26497,-0.06027 0.72871,-0.2229 0.76485,-0.295048 0.0361,-0.07241 0.12649,-0.114483 0.16869,-0.09035 0.0422,0.02414 0.0361,0.246905 -0.0241,0.373391 -0.0603,0.126487 -0.20832,0.304729 -0.1927,0.349386 0.0156,0.04453 0.11642,0.0142 0.16262,-0.01213 0.0462,-0.02633 0.81907,-0.867204 0.86114,-1.138117 0.0421,-0.270912 0.042,-0.310665 0.0662,-0.32525 0.0243,-0.01458 0.42154,-0.01213 0.82513,-0.843068 0.40347,-0.831066 0.41547,-1.156316 0.31919,-1.632187 -0.0964,-0.475743 0.14249,-0.764854 0.0212,-1.092298 -0.17166,-0.462965 -0.89353,-0.496006 -1.41148,-0.743041 -0.51795,-0.246777 -1.67788,-1.113336 -2.27714,-2.723582 -0.56415,-1.515768 -0.57925,-1.994995 -0.56841,-2.17014 0.007,-0.108417 0.1634,-0.598739 0.10467,-1.003499 -0.0346,-0.23865 -1.08248,-1.13734 -1.46336,-1.74035 -0.3592,-0.56841 -1.28874,-1.36708 -1.42736,-1.4573 -0.13849,-0.0903 -0.23864,-0.15901 -0.27104,-0.18676 -0.0369,-0.0315 -0.0241,-0.33712 -0.0662,-0.46967 -0.0422,-0.13256 -0.15656,-0.26511 -0.21077,-0.30112 -0.0494,-0.036 -0.18728,-0.0742 -0.23322,-0.13603 z M 40.5233,42.90231 c -0.0181,-0.141458 0.0286,-1.361016 0.1039,-1.418193 0.0753,-0.05718 0.53757,0.573576 0.64147,0.754399 0.10389,0.180566 0.4245,0.68651 0.43818,0.889791 0.0134,0.203282 0.0497,0.537437 -0.131,0.718132 -0.1807,0.180565 -0.63682,0.442701 -0.70007,0.456124 -0.0632,0.01355 -0.1039,-0.07228 -0.13552,-0.180565 -0.0316,-0.108288 -0.11745,-0.596163 -0.13552,-0.740718 -0.0168,-0.143265 -0.0619,-0.335576 -0.08,-0.47755 z m 1.62109,-5.826489 c 0.10687,-0.0904 1.00272,0.41559 1.19684,0.830934 0.19425,0.415597 0.52401,0.916895 0.37029,1.382183 -0.15346,0.465159 -0.6323,0.700062 -0.99807,0.709096 -0.36591,0.0089 -0.95756,0.266396 -1.24667,0.302664 -0.28911,0.03601 -0.44257,0.126357 -0.50129,0.04969 -0.0587,-0.07667 0.16714,-1.445298 0.30266,-1.702787 0.13552,-0.257361 0.3117,-0.68509 0.36436,-0.763305 0.0529,-0.07757 0.40527,-0.717616 0.5111,-0.807836 z"
     inkscape:connector-curvature="0" /><metadata
     id="metadata4201"><rdf:RDF><cc:Work><dc:format>image/svg+xml</dc:format><dc:type
           rdf:resource="http://purl.org/dc/dcmitype/StillImage" /><cc:license
           rdf:resource="http://creativecommons.org/publicdomain/zero/1.0/" /><dc:publisher><cc:Agent
             rdf:about="http://openclipart.org/"><dc:title>Openclipart</dc:title></cc:Agent></dc:publisher><dc:title>Dragon</dc:title><dc:date>2013-04-22T18:06:47</dc:date><dc:description>A cute dragon!</dc:description><dc:source>https://openclipart.org/detail/177391/dragon-by-denschub-177391</dc:source><dc:creator><cc:Agent><dc:title>denschub</dc:title></cc:Agent></dc:creator><dc:subject><rdf:Bag><rdf:li>animal</rdf:li><rdf:li>dragon</rdf:li><rdf:li>fantasy</rdf:li><rdf:li>silhouette</rdf:li></rdf:Bag></dc:subject></cc:Work><cc:License
         rdf:about="http://creativecommons.org/publicdomain/zero/1.0/"><cc:permits
           rdf:resource="http://creativecommons.org/ns#Reproduction" /><cc:permits
           rdf:resource="http://creativecommons.org/ns#Distribution" /><cc:permits
           rdf:resource="http://creativecommons.org/ns#DerivativeWorks" /></cc:License></rdf:RDF></metadata></svg>